<svg width="460" height="484" viewBox="0 0 460 484" fill="none" xmlns="http://www.w3.org/2000/svg">
	<g id="valvebara">
		<g id="Group">
			<path id="Vector"
				d="M230 483.52C357.025 483.52 460 380.545 460 253.52C460 126.495 357.025 23.52 230 23.52C102.975 23.52 0 126.495 0 253.52C0 380.545 102.975 483.52 230 483.52Z"
				fill="#BFEAE1" />
			<g id="Clip path group">
				<mask id="mask0_11_55" style="mask-type:luminance" maskUnits="userSpaceOnUse" x="0"
					y="0" width="461" height="484">
					<g id="clip-path-2">
						<path id="Vector_2"
							d="M429.23 109.13V0H209.23V24C91.94 34.55 0 130.61 0 253.54C0 380.82 103 484 230 484C357 484 460 380.82 460 253.54C460.071 209.812 447.654 166.972 424.21 130.06C419.6 122.8 434.6 115.81 429.23 109.13Z"
							fill="white" />
					</g>
				</mask>
				<g mask="url(#mask0_11_55)">
					<g id="Group_2">
						<path id="Vector_3"
							d="M-101.33 515.16C-101.33 515.16 -24.33 392.76 116.29 384.73C293.29 374.62 410.45 399.15 454.07 421.85C506.72 449.25 540.54 515.16 540.54 515.16H-101.33Z"
							fill="#412844" />
						<g id="Clip path group_2">
							<mask id="mask1_11_55" style="mask-type:luminance"
								maskUnits="userSpaceOnUse" x="-102" y="382" width="643" height="134">
								<g id="clip-path-3">
									<path id="Vector_4"
										d="M-101.33 515.16C-101.33 515.16 -24.33 392.76 116.29 384.73C293.29 374.62 410.45 399.15 454.07 421.85C506.72 449.25 540.54 515.16 540.54 515.16H-101.33Z"
										fill="white" />
								</g>
							</mask>
							<g mask="url(#mask1_11_55)">
								<g id="Group_3">
									<path id="Vector_5"
										d="M19.35 410.21C52.13 419.21 79.35 433.63 105.95 430.59C134.67 427.3 145.17 417.78 161.17 415.03C184.31 411.03 193.94 421.26 221.9 417.45C249.86 413.64 259.9 405 283.67 407.08C307.44 409.16 346.83 415.03 370.16 396.59C385.46 384.51 351.82 352.75 312.48 338.23C273.14 323.71 154.77 321.63 94.38 335.12C33.99 348.61 19.35 410.21 19.35 410.21Z"
										fill="#3A1E42" />
									<path id="Vector_6"
										d="M-205.81 492.13C-179.58 488 -70.24 506 -27.74 525.43C7.60999 541.63 91.91 509.92 131 480.37C187.2 437.89 191.83 425.01 263.2 449.37C333.15 473.24 348.38 409.15 406.35 401.49C506.73 388.21 461.71 520.49 371.19 545.37C280.67 570.25 -145.07 616.6 -178.2 601.37C-211.33 586.14 -205.81 492.13 -205.81 492.13Z"
										fill="#5B3D4D" />
									<path id="Vector_7"
										d="M281 431.56C281.24 431.42 281.29 431.48 281.17 431.73C277.803 438.477 273.918 444.954 269.55 451.1C256.883 469.16 247.367 482.563 241 491.31L240.95 491.39V491.44C240.95 491.44 241.01 491.44 241.04 491.44L276.04 446.32C276.055 446.3 276.075 446.285 276.098 446.276C276.121 446.267 276.146 446.265 276.17 446.27C297.17 449.27 314.39 443.49 338.83 446.47C342.91 446.61 366.48 451.11 370.53 450.47C387.11 447.7 383.81 444.13 399.3 437.56C405.176 435.245 411.187 433.288 417.3 431.7C417.338 431.684 417.381 431.684 417.42 431.7L424.13 436.44C424.153 436.452 424.173 436.47 424.186 436.492C424.2 436.514 424.207 436.539 424.207 436.565C424.207 436.591 424.2 436.616 424.186 436.638C424.173 436.66 424.153 436.678 424.13 436.69C409.25 441.25 398.297 444.917 391.27 447.69C389.6 448.34 388.49 449.82 387.96 452.1C387.927 452.239 387.936 452.384 387.986 452.518C388.036 452.651 388.124 452.767 388.24 452.85C389.95 454.02 392.14 454.94 393.41 456.21C397.66 460.46 398.36 467.33 397.2 473.08C397.096 473.933 396.762 474.743 396.234 475.421C395.705 476.099 395.002 476.621 394.2 476.93C389.885 478.675 385.744 480.821 381.83 483.34C375.3 487.55 378.13 497.34 376.83 505.06C376.817 505.191 376.759 505.313 376.666 505.406C376.573 505.499 376.451 505.557 376.32 505.57C374.439 505.901 372.538 506.111 370.63 506.2C364.01 506.58 366.09 516.98 367.71 520.8C367.721 520.821 367.726 520.845 367.725 520.868C367.724 520.892 367.716 520.915 367.702 520.934C367.689 520.954 367.671 520.969 367.649 520.979C367.627 520.989 367.604 520.993 367.58 520.99L308.25 520.88C308.212 520.877 308.176 520.861 308.15 520.833C308.124 520.805 308.11 520.768 308.11 520.73C308.62 509.09 310.6 499.41 317.18 490.58C317.212 490.538 317.229 490.487 317.229 490.435C317.229 490.383 317.212 490.332 317.18 490.29C317.135 490.248 317.076 490.224 317.015 490.224C316.954 490.224 316.895 490.248 316.85 490.29C312.753 493.507 309.273 497.441 306.58 501.9C306.572 501.927 306.556 501.951 306.533 501.968C306.511 501.985 306.483 501.994 306.455 501.994C306.427 501.994 306.399 501.985 306.377 501.968C306.354 501.951 306.338 501.927 306.33 501.9L305.71 498.96C305.72 498.924 305.72 498.886 305.71 498.85C305.654 498.736 305.555 498.649 305.435 498.608C305.315 498.567 305.184 498.575 305.07 498.63C300.44 500.87 297.46 512.81 296.66 517.53C296.34 519.37 295.987 521.06 295.6 522.6V522.66L292.15 526.83C292.067 526.95 291.943 527.035 291.801 527.07C291.659 527.105 291.509 527.087 291.38 527.02L290.06 526.47C290.027 526.455 290.002 526.428 289.989 526.394C289.976 526.36 289.976 526.323 289.99 526.29L292.05 520.98C292.108 520.826 292.203 520.689 292.327 520.581C292.451 520.473 292.6 520.397 292.76 520.36L293.43 520.21C293.577 520.178 293.71 520.1 293.809 519.986C293.908 519.873 293.968 519.73 293.98 519.58C294.45 514.18 290.98 508.71 287.87 504.73C287.784 504.618 287.676 504.525 287.552 504.458C287.428 504.391 287.291 504.351 287.15 504.34C282.75 503.907 281.867 504.523 284.5 506.19C284.517 506.199 284.531 506.211 284.542 506.227C284.552 506.243 284.559 506.261 284.56 506.28L286.69 518.02C286.57 519.91 284.84 520.02 283.46 520.61C283.323 520.669 283.175 520.7 283.025 520.7C282.875 520.7 282.727 520.669 282.59 520.61C281.45 520.13 280.95 521.06 280.1 521.45C279.25 521.84 278.87 521.75 278.84 521.21C279.5 518.72 279.32 512.63 275.42 513.13C275.382 513.133 275.344 513.121 275.314 513.097C275.284 513.073 275.265 513.038 275.26 513C274.371 501.441 276.642 489.858 281.83 479.49C281.856 479.434 281.863 479.371 281.848 479.311C281.834 479.251 281.799 479.198 281.75 479.16C281.726 479.136 281.697 479.116 281.665 479.103C281.633 479.09 281.599 479.083 281.565 479.083C281.531 479.083 281.496 479.09 281.465 479.103C281.433 479.116 281.404 479.136 281.38 479.16C275.968 486.442 271.938 494.654 269.49 503.39C268.823 505.85 268.513 505.803 268.56 503.25C268.63 500.61 268.79 495.25 267.19 492.41C266.96 492.01 266.61 492.02 266.37 492.41C265.953 493.117 265.653 493.887 265.48 494.69C263.873 502.59 262.297 510.503 260.75 518.43C260.351 519.04 260.066 519.718 259.91 520.43C259.905 520.461 259.889 520.489 259.865 520.509C259.842 520.529 259.811 520.54 259.78 520.54L258.17 520.64C258.151 520.641 258.131 520.639 258.113 520.632C258.095 520.626 258.079 520.616 258.064 520.603C258.05 520.59 258.039 520.574 258.031 520.556C258.024 520.538 258.02 520.519 258.02 520.5C257.96 516.6 256.347 513.82 253.18 512.16C253.014 512.071 252.821 512.05 252.64 512.1C252.551 512.125 252.468 512.168 252.396 512.225C252.324 512.283 252.263 512.354 252.219 512.435C252.174 512.516 252.146 512.605 252.136 512.697C252.126 512.788 252.134 512.881 252.16 512.97C252.95 515.655 253.341 518.441 253.32 521.24C253.317 521.278 253.301 521.314 253.273 521.34C253.245 521.366 253.208 521.38 253.17 521.38L245.17 520.85C245.148 520.85 245.127 520.845 245.107 520.834C245.088 520.824 245.072 520.808 245.06 520.79L241.47 514.91C241.44 514.859 241.392 514.82 241.336 514.8C241.28 514.78 241.218 514.782 241.163 514.803C241.107 514.825 241.062 514.866 241.034 514.918C241.005 514.971 240.997 515.032 241.01 515.09L242.12 520.89C242.125 520.911 242.124 520.932 242.119 520.953C242.114 520.973 242.105 520.993 242.091 521.009C242.078 521.025 242.061 521.039 242.042 521.047C242.022 521.056 242.001 521.061 241.98 521.06H229.19C229.172 521.061 229.154 521.059 229.137 521.053C229.12 521.047 229.105 521.038 229.092 521.026C229.078 521.013 229.068 520.999 229.061 520.982C229.054 520.966 229.05 520.948 229.05 520.93C228.93 515.56 227.05 511.08 221.59 510.15C221.524 510.135 221.455 510.136 221.39 510.155C221.324 510.174 221.265 510.209 221.217 510.257C221.169 510.305 221.134 510.364 221.115 510.43C221.096 510.495 221.095 510.564 221.11 510.63L222.46 520.7C222.461 520.72 222.459 520.74 222.452 520.758C222.446 520.777 222.436 520.794 222.423 520.809C222.41 520.824 222.394 520.836 222.377 520.845C222.359 520.854 222.34 520.859 222.32 520.86L181.02 521.23C180.991 521.228 180.963 521.217 180.94 521.199C180.917 521.181 180.899 521.157 180.89 521.13C180.88 521.102 180.879 521.072 180.886 521.044C180.893 521.015 180.908 520.99 180.93 520.97C182.56 519.82 184.55 518.9 185.85 518.05C206.203 504.97 223.413 493.253 237.48 482.9C239.998 480.894 242.214 478.537 244.06 475.9C250.6 467.1 257.043 458.253 263.39 449.36C269.23 441.28 273 436 281 431.56ZM318.75 509.35C318.671 509.679 318.658 510.02 318.712 510.354C318.765 510.688 318.884 511.009 319.061 511.297C319.239 511.585 319.471 511.835 319.746 512.033C320.02 512.231 320.331 512.372 320.66 512.45L326.5 513.84C326.828 513.919 327.169 513.932 327.502 513.88C327.836 513.827 328.156 513.709 328.444 513.532C328.732 513.356 328.982 513.125 329.18 512.851C329.379 512.578 329.521 512.268 329.6 511.94C329.754 511.276 329.639 510.578 329.282 509.998C328.924 509.417 328.352 509.001 327.69 508.84L321.69 507.42C321.379 507.344 321.057 507.331 320.741 507.38C320.425 507.43 320.122 507.542 319.85 507.709C319.577 507.876 319.341 508.096 319.154 508.355C318.967 508.615 318.833 508.909 318.76 509.22L318.75 509.35Z"
										fill="#A07B78" />
								</g>
							</g>
						</g>
						<path id="Vector_8"
							d="M234.64 46.28C227.74 46.28 208.99 18.94 231.7 9.11C253.27 -0.230001 255.86 28.82 254.82 32.97"
							fill="#E67F4B" />
						<path id="Vector_9"
							d="M288.47 22.77C288.99 18.44 289.47 5.77 300.38 5.99C311.29 6.21 309.38 24.99 309.38 24.99"
							fill="#E67F4B" />
						<path id="Vector_10"
							d="M294.68 26.15C293.56 18.62 295.68 8.91 301.93 8.89C308.18 8.87 309.68 13.7 309.48 25.09L305.72 24.66C305.72 24.66 307.51 13.01 302.62 12.52C297.73 12.03 298.13 26.15 298.13 26.15H294.68Z"
							fill="#381639" />
						<path id="Vector_11"
							d="M68 410.67C57 401.91 -66.92 324.53 40 206.2C72.37 170.38 133 132.35 168.38 100.05C214.77 57.68 244.53 23.28 264.47 20.94C316.85 14.79 408.47 35.16 418.4 54.4C429.4 75.88 419.55 116.53 411.73 126.67C403.91 136.81 382.73 158.94 382.73 158.94L380.9 148.8C380.9 148.8 365.71 170 370.78 194.44C375.85 218.88 381.78 279.27 355.59 311.08C329.4 342.89 315.1 375.63 318.32 376.08C321.54 376.53 350.99 374.24 354.9 393.83C354.9 393.83 327.29 400.28 307.74 397.52C296.022 395.871 284.419 393.487 273 390.38H243.78C243.78 390.38 243.31 400.65 239.69 401.68C236.07 402.71 218.59 405.37 203.92 405.37C189.25 405.37 167.52 399.83 167.52 399.83C167.52 399.83 145.43 402.95 143.36 403.64C141.29 404.33 138.49 412.64 122.29 415.16C80 421.78 68 410.67 68 410.67Z"
							fill="#F58C54" />
						<g id="Clip path group_3">
							<mask id="mask2_11_55" style="mask-type:luminance"
								maskUnits="userSpaceOnUse" x="-4" y="19" width="428" height="399">
								<g id="clip-path-4">
									<path id="Vector_12"
										d="M68 410.67C57 401.91 -66.92 324.53 40 206.2C72.37 170.38 133 132.35 168.38 100.05C214.77 57.68 244.53 23.28 264.47 20.94C316.85 14.79 408.47 35.16 418.4 54.4C429.4 75.88 419.55 116.53 411.73 126.67C403.91 136.81 382.73 158.94 382.73 158.94L380.9 148.8C380.9 148.8 365.71 170 370.78 194.44C375.85 218.88 381.78 279.27 355.59 311.08C329.4 342.89 315.1 375.63 318.32 376.08C321.54 376.53 350.99 374.24 354.9 393.83C354.9 393.83 327.29 400.28 307.74 397.52C296.022 395.871 284.419 393.487 273 390.38H243.78C243.78 390.38 243.31 400.65 239.69 401.68C236.07 402.71 218.59 405.37 203.92 405.37C189.25 405.37 167.52 399.83 167.52 399.83C167.52 399.83 145.43 402.95 143.36 403.64C141.29 404.33 138.49 412.64 122.29 415.16C80 421.78 68 410.67 68 410.67Z"
										fill="white" />
								</g>
							</mask>
							<g mask="url(#mask2_11_55)">
								<g id="Group_4">
									<path id="Vector_13"
										d="M292.31 9.63C255.73 17.24 228.66 35.81 225.56 67.63C222.46 99.45 233.24 136.48 279 143C331.91 150.53 350.55 128.34 355.38 115.9C360.21 103.46 377.65 62.23 386.63 54.63C395.61 47.03 446.03 30.97 452.24 61.39C458.45 91.81 404 302.05 368.77 324.18C333.54 346.31 187 378.05 131.8 381.51C76.6 384.97 -33.85 385 -32.47 351.08C-31.09 317.16 -3.18998 275 -3.18998 275C-3.18998 275 30.58 352.53 65.81 351.14C101.04 349.75 65.81 270.92 90.65 264.01C115.49 257.1 137.59 313.8 161.74 309.01C185.89 304.22 198.26 258.12 189.67 213.87C181.58 172.18 183.67 118.7 201.59 82.74C219.51 46.78 236.28 43.49 226.96 37.96C217.64 32.43 163.12 43.45 187.96 9.56999C212.8 -24.31 292.31 9.63 292.31 9.63Z"
										fill="#E67F4B" />
									<path id="Vector_14"
										d="M-13.59 324.58C9.08003 348.22 63.81 384.91 101.17 373.12C130.23 363.96 133.27 340.97 123.26 325.06C113.25 309.15 102.9 289.79 109.45 290.83C116 291.87 124.98 318.14 130.85 330.25C136.72 342.36 146.75 364.45 166.77 363.07C186.79 361.69 192.42 318.23 194.84 305.44C197.26 292.65 205.84 261.18 234.38 285.99C266.38 313.88 311.18 274.32 337.98 253.53C378.25 222.3 374.31 208.53 377.07 191.59C379.83 174.65 415.48 216.49 424.46 214.41C433.44 212.33 359.3 379.35 350.33 378C339.577 376.54 328.741 375.772 317.89 375.7C307.19 375.58 295.11 379.04 292.7 380.77C290.29 382.5 300.92 385.18 309.39 385.77C316.46 386.25 329.81 390.31 335.23 385.4C338.97 382.02 342.6 384.31 351.76 394.56C354.17 397.26 366.55 389.77 364.82 395.65C363.09 401.53 318.24 415.65 290.28 409.48C262.32 403.31 241.28 390.12 234.72 386.31C228.16 382.5 209.72 379.4 198.57 379.4C187.42 379.4 171.23 382.85 172.26 384.24C173.29 385.63 181.18 398.83 214.34 394.93C221.53 394.09 223.45 390.81 230.15 391.58C234.28 392.06 247.49 396.34 249.91 404.98C252.33 413.62 150.52 418.75 146.72 411C142.92 403.25 137.41 390.09 113.94 390.43C90.47 390.77 74.6 399.43 73.57 400.11C72.54 400.79 87.86 407.81 106.67 406.11C111.35 405.69 117.97 403.4 121.58 400.26C129.11 393.69 149.51 413.93 147.79 417.05C146.07 420.17 118.43 435.05 91.51 432.29C64.59 429.53 23.87 408.74 19.39 389C14.91 369.26 -13.59 324.58 -13.59 324.58Z"
										fill="#B85934" />
									<path id="Vector_15"
										d="M204.78 293.75C202.47 295.6 192.28 345.83 191.47 356.57C190.8 365.51 193.06 373.86 202.19 374.23C216.31 374.8 245.41 388.87 253.27 398.34C260.14 406.61 329.61 401.4 330.5 399.28C339.42 377.97 290.13 387.72 292.7 380.73C296.97 369.13 310.91 367.03 322.98 349.73C348.98 312.38 378.19 296.25 383.26 265.13C385.33 252.39 377.42 261.57 372.18 272.82C357.8 303.71 322.49 338.82 302.29 352.72C281.58 367.02 258.29 368.84 235.67 364.25C194.83 355.92 204.78 293.75 204.78 293.75Z"
										fill="#834030" />
									<path id="Vector_16"
										d="M110.74 424.4C111.23 417.17 110.85 412.51 107.04 406.58C106.39 405.58 110.68 404.42 111.67 405.47C117.18 411.36 117.8 416.86 116.52 424.97L110.74 424.4Z"
										fill="#381639" />
									<path id="Vector_17"
										d="M128.8 420.22C127.602 413.527 124.446 407.339 119.73 402.44C118.78 401.5 122.33 398.86 124.01 400.13C126.96 402.232 129.418 404.95 131.214 408.096C133.009 411.242 134.1 414.741 134.41 418.35L128.8 420.22Z"
										fill="#381639" />
									<path id="Vector_18"
										d="M247.08 403.46C244.08 397.08 239.08 392.37 232.32 388.72C231.24 388.13 232.44 385.27 233.81 385.72C241.99 388.55 247.2 391.37 250.44 398.43L247.08 403.46Z"
										fill="#381639" />
									<path id="Vector_19"
										d="M351.55 397.2C350.43 390.25 348.34 387.33 342.37 382.99C341.37 382.26 343.37 379.8 344.62 380.54C351.91 384.85 354.53 387.19 355.71 394.88L351.55 397.2Z"
										fill="#381639" />
									<path id="Vector_20"
										d="M338.37 402.4C340.11 395.58 338.55 391.85 335.6 385.7C335.07 384.58 338.36 383.18 339.21 384.36C344.21 391.22 345.09 394.41 343.11 401.92L338.37 402.4Z"
										fill="#381639" />
									<path id="Vector_21"
										d="M325.35 401.35C327.82 395.7 327.9 392.35 326.55 387.75C326.14 386.35 329.8 386.04 330.34 387.4C332.11 391.82 332.8 395.46 329.66 401.79L325.35 401.35Z"
										fill="#381639" />
									<path id="Vector_22"
										d="M233.56 409.57C232.22 402.22 228.56 397.39 225.06 393.1C223.96 391.75 228.44 390.59 230 391.9C236.42 397.29 238 401.04 239.55 408.66L233.56 409.57Z"
										fill="#381639" />
									<path id="Vector_23"
										d="M217.26 414.6C217.7 407.6 217.75 402.32 213.58 395.86C212.91 394.86 216.83 393.4 217.81 394.48C223.61 400.91 224.21 406.15 223.66 413.9L217.26 414.6Z"
										fill="#381639" />
									<path id="Vector_24"
										d="M402.25 62.4C395.01 80.73 383.96 94.91 376.37 99.4C368.78 103.89 363.6 117.4 368.78 121.88C373.96 126.36 361.53 141.24 348.07 145.05C334.61 148.86 275.26 156.46 264.56 186.54C256.78 208.43 258.7 267.45 284.56 272.98C310.42 278.51 338.49 269.48 346.43 258.41C354.37 247.34 383 210 400.28 205.85C417.56 201.7 464.37 124.64 462.28 93.85C460.19 63.06 402.25 62.4 402.25 62.4Z"
										fill="#B85934" />
									<path id="Vector_25"
										d="M126.1 326.53C132.47 336.53 136.6 355.61 145.31 367.53C153.09 378.13 155.15 401.68 187.22 407.42C219.85 413.26 150.28 418.18 146.92 410.84C143.56 403.5 130.44 393.84 134.64 395.18C143.48 397.88 153.54 389.39 140.08 364.04C131.09 347 126.1 326.53 126.1 326.53Z"
										fill="#834030" />
									<path id="Vector_26"
										d="M141.81 416.08C140.93 409.08 137.61 403.08 132.31 397.5C131.46 396.6 133.48 394.26 134.64 395.13C141.55 400.35 145.31 405.21 146.22 412.93L141.81 416.08Z"
										fill="#381639" />
								</g>
							</g>
						</g>
						<path id="Vector_27"
							d="M381.47 60.28C382.15 50.93 388.53 42.28 405.23 44.48C420.99 46.57 425.49 57.87 424.83 66.12C424.32 72.38 415.69 82.64 403.18 82.06C388.34 81.37 380.61 72.15 381.47 60.28Z"
							fill="#633E50" />
						<g id="Clip path group_4">
							<mask id="mask3_11_55" style="mask-type:luminance"
								maskUnits="userSpaceOnUse" x="381" y="44" width="44" height="39">
								<g id="clip-path-5">
									<path id="Vector_28"
										d="M381.47 60.28C382.15 50.93 388.53 42.28 405.23 44.48C420.99 46.57 425.49 57.87 424.83 66.12C424.32 72.38 415.69 82.64 403.18 82.06C388.34 81.37 380.61 72.15 381.47 60.28Z"
										fill="white" />
								</g>
							</mask>
							<g mask="url(#mask3_11_55)">
								<g id="Group_5">
									<path id="Vector_29"
										d="M380.44 56.31C386.91 58.06 398.38 58.64 401.06 64.82C403.38 70.18 403.12 79.73 393.98 84.05C385.61 88.05 378.71 78.26 377.33 71.61C375.95 64.96 380.44 56.31 380.44 56.31Z"
										fill="#381639" />
									<path id="Vector_30"
										d="M428.06 57.43C423.06 58.9 417.28 62.53 417.06 68.32C416.84 74.11 418.44 83.32 421.9 84.57C425.36 85.82 434.32 82.84 436.39 76.19C438.46 69.54 428.06 57.43 428.06 57.43Z"
										fill="#381639" />
								</g>
							</g>
						</g>
						<path id="Vector_31"
							d="M372.74 122.32C373.204 121.752 373.807 121.313 374.49 121.045C375.173 120.777 375.913 120.689 376.64 120.79C406 123.29 413.91 100 408.3 62.4C408.3 62.4 410.82 63.02 411.3 64.92C412.79 70.45 424.89 134.1 372.74 122.32Z"
							fill="#381639" />
						<path id="Vector_32"
							d="M412.86 123.3C405.24 122.3 405.34 112.9 406.31 108.49C406.31 108.49 408.62 108.68 408.56 109.49C408.22 114.24 409.07 118.42 412.62 120.9C413.57 121.54 412.86 123.3 412.86 123.3Z"
							fill="#381639" />
						<path id="Vector_33"
							d="M233.43 40.05C233.82 43.43 229.61 43.6 228.88 42.88C227.42 41.42 217.33 30.32 221.69 20.88C225.61 12.47 235.49 10.51 242.8 13.88C251.16 17.7 251.86 27.09 248.41 27.29C244.96 27.49 247.17 19.82 237.93 18C230.58 16.56 225.36 21.92 226.57 28.35C228.08 36.42 233.16 37.78 233.43 40.05Z"
							fill="#381639" />
						<path id="Vector_34"
							d="M295.49 25.39C283.06 22.68 380.66 35.25 382.85 41.53C388.14 56.74 301 26.6 295.49 25.39Z"
							fill="#FEA362" />
						<path id="Vector_35"
							d="M282.4 53.81C284.07 46.45 301.93 36.32 312.93 45.81C322.93 54.41 317.13 62.05 310 57.21C302.87 52.37 306 50.26 299 49C292 47.74 281.31 58.61 282.4 53.81Z"
							fill="#E67F4B" />
						<path id="Vector_36"
							d="M282.94 57.32C281.06 58.32 279.1 56.77 279.1 56.77C297.33 39.3 306.87 48.64 311.03 55.39C311.03 55.39 308.78 56.79 307.51 55.5C299 46.82 293.88 51.49 282.94 57.32Z"
							fill="#381639" />
					</g>
				</g>
			</g>
		</g>
	</g>
</svg>
	