<svg width="540" height="540" viewBox="0 0 540 540" fill="none" xmlns="http://www.w3.org/2000/svg">
	<mask id="mask0_30_126" style="mask-type:luminance" maskUnits="userSpaceOnUse" x="0" y="0"
		width="540" height="540">
		<path d="M540 0H0V540H540V0Z" fill="white" />
	</mask>
	<g mask="url(#mask0_30_126)">
		<path
			d="M270 511.52C397.025 511.52 500 408.545 500 281.52C500 154.495 397.025 51.52 270 51.52C142.975 51.52 40 154.495 40 281.52C40 408.545 142.975 511.52 270 511.52Z"
			fill="#BFEAE1" />
		<mask id="mask1_30_126" style="mask-type:luminance" maskUnits="userSpaceOnUse" x="40" y="28"
			width="461" height="484">
			<path
				d="M469.23 137.13V28H249.23V52C131.94 62.55 40 158.61 40 281.54C40 408.82 143 512 270 512C397 512 500 408.82 500 281.54C500.071 237.812 487.654 194.972 464.21 158.06C459.6 150.8 474.6 143.81 469.23 137.13Z"
				fill="white" />
		</mask>
		<g mask="url(#mask1_30_126)">
			<path
				d="M-61.3301 543.16C-61.3301 543.16 15.6699 420.76 156.29 412.73C333.29 402.62 450.45 427.15 494.07 449.85C546.72 477.25 580.54 543.16 580.54 543.16H-61.3301Z"
				fill="#412844" />
			<mask id="mask2_30_126" style="mask-type:luminance" maskUnits="userSpaceOnUse" x="-62"
				y="410" width="643" height="134">
				<path
					d="M-61.3301 543.16C-61.3301 543.16 15.6699 420.76 156.29 412.73C333.29 402.62 450.45 427.15 494.07 449.85C546.72 477.25 580.54 543.16 580.54 543.16H-61.3301Z"
					fill="white" />
			</mask>
			<g mask="url(#mask2_30_126)">
				<path
					d="M59.3499 438.21C92.1299 447.21 119.35 461.63 145.95 458.59C174.67 455.3 185.17 445.78 201.17 443.03C224.31 439.03 233.94 449.26 261.9 445.45C289.86 441.64 299.9 433 323.67 435.08C347.44 437.16 386.83 443.03 410.16 424.59C425.46 412.51 391.82 380.75 352.48 366.23C313.14 351.71 194.77 349.63 134.38 363.12C73.9899 376.61 59.3499 438.21 59.3499 438.21Z"
					fill="#3A1E42" />
				<path
					d="M-165.81 520.13C-139.58 516 -30.2402 534 12.2598 553.43C47.6098 569.63 131.91 537.92 171 508.37C227.2 465.89 231.83 453.01 303.2 477.37C373.15 501.24 388.38 437.15 446.35 429.49C546.73 416.21 501.71 548.49 411.19 573.37C320.67 598.25 -105.07 644.6 -138.2 629.37C-171.33 614.14 -165.81 520.13 -165.81 520.13Z"
					fill="#5B3D4D" />
				<path
					d="M321 459.56C321.24 459.42 321.29 459.48 321.17 459.73C317.803 466.477 313.918 472.954 309.55 479.1C296.883 497.16 287.367 510.563 281 519.31L280.95 519.39V519.44C280.95 519.44 281.01 519.44 281.04 519.44L316.04 474.32C316.055 474.3 316.075 474.285 316.098 474.276C316.121 474.267 316.146 474.265 316.17 474.27C337.17 477.27 354.39 471.49 378.83 474.47C382.91 474.61 406.48 479.11 410.53 478.47C427.11 475.7 423.81 472.13 439.3 465.56C445.176 463.245 451.187 461.288 457.3 459.7C457.338 459.684 457.381 459.684 457.42 459.7L464.13 464.44C464.153 464.452 464.172 464.47 464.186 464.492C464.2 464.514 464.207 464.539 464.207 464.565C464.207 464.591 464.2 464.616 464.186 464.638C464.172 464.66 464.153 464.678 464.13 464.69C449.25 469.25 438.297 472.917 431.27 475.69C429.6 476.34 428.49 477.82 427.96 480.1C427.927 480.239 427.936 480.384 427.986 480.518C428.036 480.651 428.124 480.767 428.24 480.85C429.95 482.02 432.14 482.94 433.41 484.21C437.66 488.46 438.36 495.33 437.2 501.08C437.096 501.933 436.762 502.743 436.233 503.421C435.705 504.099 435.002 504.621 434.2 504.93C429.885 506.675 425.743 508.821 421.83 511.34C415.3 515.55 418.13 525.34 416.83 533.06C416.817 533.191 416.759 533.313 416.666 533.406C416.573 533.499 416.451 533.557 416.32 533.57C414.438 533.901 412.538 534.111 410.63 534.2C404.01 534.58 406.09 544.98 407.71 548.8C407.721 548.821 407.726 548.845 407.725 548.868C407.723 548.892 407.716 548.915 407.702 548.934C407.689 548.954 407.67 548.969 407.649 548.979C407.627 548.989 407.603 548.993 407.58 548.99L348.25 548.88C348.212 548.877 348.176 548.861 348.15 548.833C348.124 548.805 348.11 548.768 348.11 548.73C348.62 537.09 350.6 527.41 357.18 518.58C357.211 518.538 357.229 518.487 357.229 518.435C357.229 518.383 357.211 518.332 357.18 518.29C357.135 518.248 357.076 518.224 357.015 518.224C356.953 518.224 356.894 518.248 356.85 518.29C352.753 521.507 349.273 525.441 346.58 529.9C346.572 529.927 346.556 529.951 346.533 529.968C346.511 529.985 346.483 529.994 346.455 529.994C346.427 529.994 346.399 529.985 346.377 529.968C346.354 529.951 346.338 529.927 346.33 529.9L345.71 526.96C345.72 526.924 345.72 526.886 345.71 526.85C345.654 526.736 345.555 526.649 345.435 526.608C345.315 526.567 345.184 526.575 345.07 526.63C340.44 528.87 337.46 540.81 336.66 545.53C336.34 547.37 335.987 549.06 335.6 550.6V550.66L332.15 554.83C332.067 554.95 331.942 555.035 331.801 555.07C331.659 555.105 331.509 555.087 331.38 555.02L330.06 554.47C330.027 554.455 330.002 554.428 329.989 554.394C329.976 554.36 329.976 554.323 329.99 554.29L332.05 548.98C332.108 548.826 332.203 548.689 332.327 548.581C332.451 548.473 332.6 548.397 332.76 548.36L333.43 548.21C333.577 548.178 333.71 548.1 333.809 547.986C333.908 547.873 333.968 547.73 333.98 547.58C334.45 542.18 330.98 536.71 327.87 532.73C327.784 532.618 327.676 532.525 327.552 532.458C327.428 532.391 327.291 532.351 327.15 532.34C322.75 531.907 321.867 532.523 324.5 534.19C324.517 534.199 324.531 534.211 324.542 534.227C324.552 534.243 324.558 534.261 324.56 534.28L326.69 546.02C326.57 547.91 324.84 548.02 323.46 548.61C323.322 548.669 323.174 548.7 323.025 548.7C322.875 548.7 322.727 548.669 322.59 548.61C321.45 548.13 320.95 549.06 320.1 549.45C319.25 549.84 318.87 549.75 318.84 549.21C319.5 546.72 319.32 540.63 315.42 541.13C315.382 541.133 315.344 541.121 315.314 541.097C315.284 541.073 315.265 541.038 315.26 541C314.371 529.441 316.642 517.858 321.83 507.49C321.856 507.434 321.863 507.371 321.848 507.311C321.834 507.251 321.799 507.198 321.75 507.16C321.726 507.136 321.697 507.116 321.665 507.103C321.633 507.09 321.599 507.083 321.565 507.083C321.53 507.083 321.496 507.09 321.465 507.103C321.433 507.116 321.404 507.136 321.38 507.16C315.968 514.442 311.938 522.654 309.49 531.39C308.823 533.85 308.513 533.803 308.56 531.25C308.63 528.61 308.79 523.25 307.19 520.41C306.96 520.01 306.61 520.02 306.37 520.41C305.953 521.117 305.653 521.887 305.48 522.69C303.873 530.59 302.297 538.503 300.75 546.43C300.351 547.04 300.066 547.718 299.91 548.43C299.905 548.461 299.889 548.489 299.865 548.509C299.841 548.529 299.811 548.54 299.78 548.54L298.17 548.64C298.151 548.641 298.131 548.639 298.113 548.632C298.095 548.626 298.078 548.616 298.064 548.603C298.05 548.59 298.039 548.574 298.031 548.556C298.024 548.538 298.02 548.519 298.02 548.5C297.96 544.6 296.347 541.82 293.18 540.16C293.014 540.071 292.821 540.05 292.64 540.1C292.551 540.125 292.468 540.168 292.396 540.225C292.324 540.283 292.263 540.354 292.219 540.435C292.174 540.516 292.146 540.605 292.136 540.697C292.126 540.788 292.134 540.881 292.16 540.97C292.95 543.655 293.34 546.441 293.32 549.24C293.317 549.278 293.3 549.314 293.273 549.34C293.245 549.366 293.208 549.38 293.17 549.38L285.17 548.85C285.148 548.85 285.126 548.845 285.107 548.834C285.088 548.824 285.072 548.808 285.06 548.79L281.47 542.91C281.44 542.859 281.392 542.82 281.336 542.8C281.28 542.78 281.218 542.782 281.163 542.803C281.107 542.825 281.061 542.866 281.033 542.918C281.005 542.971 280.997 543.032 281.01 543.09L282.12 548.89C282.124 548.911 282.124 548.932 282.119 548.953C282.114 548.973 282.105 548.993 282.091 549.009C282.078 549.025 282.061 549.039 282.041 549.047C282.022 549.056 282.001 549.061 281.98 549.06H269.19C269.172 549.061 269.154 549.059 269.137 549.053C269.12 549.047 269.105 549.038 269.091 549.026C269.078 549.013 269.068 548.999 269.061 548.982C269.053 548.966 269.05 548.948 269.05 548.93C268.93 543.56 267.05 539.08 261.59 538.15C261.524 538.135 261.455 538.136 261.389 538.155C261.324 538.174 261.265 538.209 261.217 538.257C261.169 538.305 261.134 538.364 261.115 538.43C261.096 538.495 261.094 538.564 261.11 538.63L262.46 548.7C262.461 548.72 262.459 548.74 262.452 548.758C262.446 548.777 262.436 548.794 262.423 548.809C262.41 548.824 262.394 548.836 262.377 548.845C262.359 548.854 262.34 548.859 262.32 548.86L221.02 549.23C220.991 549.228 220.963 549.217 220.94 549.199C220.917 549.181 220.899 549.157 220.89 549.13C220.88 549.102 220.879 549.072 220.886 549.044C220.893 549.015 220.908 548.99 220.93 548.97C222.56 547.82 224.55 546.9 225.85 546.05C246.203 532.97 263.413 521.253 277.48 510.9C279.998 508.894 282.214 506.537 284.06 503.9C290.6 495.1 297.043 486.253 303.39 477.36C309.23 469.28 313 464 321 459.56ZM358.75 537.35C358.671 537.679 358.658 538.02 358.711 538.354C358.765 538.688 358.884 539.009 359.061 539.297C359.239 539.585 359.471 539.835 359.746 540.033C360.02 540.231 360.331 540.372 360.66 540.45L366.5 541.84C366.828 541.919 367.169 541.932 367.502 541.88C367.836 541.827 368.156 541.709 368.444 541.532C368.731 541.356 368.982 541.125 369.18 540.851C369.379 540.578 369.521 540.268 369.6 539.94C369.753 539.276 369.639 538.578 369.282 537.998C368.924 537.417 368.352 537.001 367.69 536.84L361.69 535.42C361.379 535.344 361.057 535.331 360.741 535.38C360.425 535.43 360.122 535.542 359.85 535.709C359.577 535.876 359.341 536.096 359.153 536.355C358.966 536.615 358.833 536.909 358.76 537.22L358.75 537.35Z"
					fill="#A07B78" />
			</g>
			<path
				d="M274.64 74.28C267.74 74.28 248.99 46.94 271.7 37.11C293.27 27.77 295.86 56.82 294.82 60.97"
				fill="#E67F4B" />
			<path
				d="M328.47 50.77C328.99 46.44 329.47 33.77 340.38 33.99C351.29 34.21 349.38 52.99 349.38 52.99"
				fill="#E67F4B" />
			<path
				d="M334.68 54.15C333.56 46.62 335.68 36.91 341.93 36.89C348.18 36.87 349.68 41.7 349.48 53.09L345.72 52.66C345.72 52.66 347.51 41.01 342.62 40.52C337.73 40.03 338.13 54.15 338.13 54.15H334.68Z"
				fill="#381639" />
			<path
				d="M108 438.67C96.9999 429.91 -26.9201 352.53 79.9999 234.2C112.37 198.38 173 160.35 208.38 128.05C254.77 85.68 284.53 51.28 304.47 48.94C356.85 42.79 448.47 63.16 458.4 82.4C469.4 103.88 459.55 144.53 451.73 154.67C443.91 164.81 422.73 186.94 422.73 186.94L420.9 176.8C420.9 176.8 405.71 198 410.78 222.44C415.85 246.88 421.78 307.27 395.59 339.08C369.4 370.89 355.1 403.63 358.32 404.08C361.54 404.53 390.99 402.24 394.9 421.83C394.9 421.83 367.29 428.28 347.74 425.52C336.021 423.871 324.419 421.487 313 418.38H283.78C283.78 418.38 283.31 428.65 279.69 429.68C276.07 430.71 258.59 433.37 243.92 433.37C229.25 433.37 207.52 427.83 207.52 427.83C207.52 427.83 185.43 430.95 183.36 431.64C181.29 432.33 178.49 440.64 162.29 443.16C120 449.78 108 438.67 108 438.67Z"
				fill="#F58C54" />
			<mask id="mask3_30_126" style="mask-type:luminance" maskUnits="userSpaceOnUse" x="36"
				y="47" width="428" height="399">
				<path
					d="M108 438.67C96.9999 429.91 -26.9201 352.53 79.9999 234.2C112.37 198.38 173 160.35 208.38 128.05C254.77 85.68 284.53 51.28 304.47 48.94C356.85 42.79 448.47 63.16 458.4 82.4C469.4 103.88 459.55 144.53 451.73 154.67C443.91 164.81 422.73 186.94 422.73 186.94L420.9 176.8C420.9 176.8 405.71 198 410.78 222.44C415.85 246.88 421.78 307.27 395.59 339.08C369.4 370.89 355.1 403.63 358.32 404.08C361.54 404.53 390.99 402.24 394.9 421.83C394.9 421.83 367.29 428.28 347.74 425.52C336.021 423.871 324.419 421.487 313 418.38H283.78C283.78 418.38 283.31 428.65 279.69 429.68C276.07 430.71 258.59 433.37 243.92 433.37C229.25 433.37 207.52 427.83 207.52 427.83C207.52 427.83 185.43 430.95 183.36 431.64C181.29 432.33 178.49 440.64 162.29 443.16C120 449.78 108 438.67 108 438.67Z"
					fill="white" />
			</mask>
			<g mask="url(#mask3_30_126)">
				<path
					d="M332.31 37.63C295.73 45.24 268.66 63.81 265.56 95.63C262.46 127.45 273.24 164.48 319 171C371.91 178.53 390.55 156.34 395.38 143.9C400.21 131.46 417.65 90.23 426.63 82.63C435.61 75.03 486.03 58.97 492.24 89.39C498.45 119.81 444 330.05 408.77 352.18C373.54 374.31 227 406.05 171.8 409.51C116.6 412.97 6.1499 413 7.5299 379.08C8.9099 345.16 36.8099 303 36.8099 303C36.8099 303 70.5799 380.53 105.81 379.14C141.04 377.75 105.81 298.92 130.65 292.01C155.49 285.1 177.59 341.8 201.74 337.01C225.89 332.22 238.26 286.12 229.67 241.87C221.58 200.18 223.67 146.7 241.59 110.74C259.51 74.78 276.28 71.49 266.96 65.96C257.64 60.43 203.12 71.45 227.96 37.57C252.8 3.68999 332.31 37.63 332.31 37.63Z"
					fill="#E67F4B" />
				<path
					d="M26.4099 352.58C49.0799 376.22 103.81 412.91 141.17 401.12C170.23 391.96 173.27 368.97 163.26 353.06C153.25 337.15 142.9 317.79 149.45 318.83C156 319.87 164.98 346.14 170.85 358.25C176.72 370.36 186.75 392.45 206.77 391.07C226.79 389.69 232.42 346.23 234.84 333.44C237.26 320.65 245.84 289.18 274.38 313.99C306.38 341.88 351.18 302.32 377.98 281.53C418.25 250.3 414.31 236.53 417.07 219.59C419.83 202.65 455.48 244.49 464.46 242.41C473.44 240.33 399.3 407.35 390.33 406C379.577 404.54 368.741 403.772 357.89 403.7C347.19 403.58 335.11 407.04 332.7 408.77C330.29 410.5 340.92 413.18 349.39 413.77C356.46 414.25 369.81 418.31 375.23 413.4C378.97 410.02 382.6 412.31 391.76 422.56C394.17 425.26 406.55 417.77 404.82 423.65C403.09 429.53 358.24 443.65 330.28 437.48C302.32 431.31 281.28 418.12 274.72 414.31C268.16 410.5 249.72 407.4 238.57 407.4C227.42 407.4 211.23 410.85 212.26 412.24C213.29 413.63 221.18 426.83 254.34 422.93C261.53 422.09 263.45 418.81 270.15 419.58C274.28 420.06 287.49 424.34 289.91 432.98C292.33 441.62 190.52 446.75 186.72 439C182.92 431.25 177.41 418.09 153.94 418.43C130.47 418.77 114.6 427.43 113.57 428.11C112.54 428.79 127.86 435.81 146.67 434.11C151.35 433.69 157.97 431.4 161.58 428.26C169.11 421.69 189.51 441.93 187.79 445.05C186.07 448.17 158.43 463.05 131.51 460.29C104.59 457.53 63.8699 436.74 59.3899 417C54.9099 397.26 26.4099 352.58 26.4099 352.58Z"
					fill="#B85934" />
				<path
					d="M244.78 321.75C242.47 323.6 232.28 373.83 231.47 384.57C230.8 393.51 233.06 401.86 242.19 402.23C256.31 402.8 285.41 416.87 293.27 426.34C300.14 434.61 369.61 429.4 370.5 427.28C379.42 405.97 330.13 415.72 332.7 408.73C336.97 397.13 350.91 395.03 362.98 377.73C388.98 340.38 418.19 324.25 423.26 293.13C425.33 280.39 417.42 289.57 412.18 300.82C397.8 331.71 362.49 366.82 342.29 380.72C321.58 395.02 298.29 396.84 275.67 392.25C234.83 383.92 244.78 321.75 244.78 321.75Z"
					fill="#834030" />
				<path
					d="M150.74 452.4C151.23 445.17 150.85 440.51 147.04 434.58C146.39 433.58 150.68 432.42 151.67 433.47C157.18 439.36 157.8 444.86 156.52 452.97L150.74 452.4Z"
					fill="#381639" />
				<path
					d="M168.8 448.22C167.602 441.527 164.446 435.339 159.73 430.44C158.78 429.5 162.33 426.86 164.01 428.13C166.96 430.232 169.418 432.95 171.214 436.096C173.009 439.242 174.1 442.741 174.41 446.35L168.8 448.22Z"
					fill="#381639" />
				<path
					d="M287.08 431.46C284.08 425.08 279.08 420.37 272.32 416.72C271.24 416.13 272.44 413.27 273.81 413.72C281.99 416.55 287.2 419.37 290.44 426.43L287.08 431.46Z"
					fill="#381639" />
				<path
					d="M391.55 425.2C390.43 418.25 388.34 415.33 382.37 410.99C381.37 410.26 383.37 407.8 384.62 408.54C391.91 412.85 394.53 415.19 395.71 422.88L391.55 425.2Z"
					fill="#381639" />
				<path
					d="M378.37 430.4C380.11 423.58 378.55 419.85 375.6 413.7C375.07 412.58 378.36 411.18 379.21 412.36C384.21 419.22 385.09 422.41 383.11 429.92L378.37 430.4Z"
					fill="#381639" />
				<path
					d="M365.35 429.35C367.82 423.7 367.9 420.35 366.55 415.75C366.14 414.35 369.8 414.04 370.34 415.4C372.11 419.82 372.8 423.46 369.66 429.79L365.35 429.35Z"
					fill="#381639" />
				<path
					d="M273.56 437.57C272.22 430.22 268.56 425.39 265.06 421.1C263.96 419.75 268.44 418.59 270 419.9C276.42 425.29 278 429.04 279.55 436.66L273.56 437.57Z"
					fill="#381639" />
				<path
					d="M257.26 442.6C257.7 435.6 257.75 430.32 253.58 423.86C252.91 422.86 256.83 421.4 257.81 422.48C263.61 428.91 264.21 434.15 263.66 441.9L257.26 442.6Z"
					fill="#381639" />
				<path
					d="M442.25 90.4C435.01 108.73 423.96 122.91 416.37 127.4C408.78 131.89 403.6 145.4 408.78 149.88C413.96 154.36 401.53 169.24 388.07 173.05C374.61 176.86 315.26 184.46 304.56 214.54C296.78 236.43 298.7 295.45 324.56 300.98C350.42 306.51 378.49 297.48 386.43 286.41C394.37 275.34 423 238 440.28 233.85C457.56 229.7 504.37 152.64 502.28 121.85C500.19 91.06 442.25 90.4 442.25 90.4Z"
					fill="#B85934" />
				<path
					d="M166.1 354.53C172.47 364.53 176.6 383.61 185.31 395.53C193.09 406.13 195.15 429.68 227.22 435.42C259.85 441.26 190.28 446.18 186.92 438.84C183.56 431.5 170.44 421.84 174.64 423.18C183.48 425.88 193.54 417.39 180.08 392.04C171.09 375 166.1 354.53 166.1 354.53Z"
					fill="#834030" />
				<path
					d="M181.81 444.08C180.93 437.08 177.61 431.08 172.31 425.5C171.46 424.6 173.48 422.26 174.64 423.13C181.55 428.35 185.31 433.21 186.22 440.93L181.81 444.08Z"
					fill="#381639" />
			</g>
			<path
				d="M421.47 88.28C422.15 78.93 428.53 70.28 445.23 72.48C460.99 74.57 465.49 85.87 464.83 94.12C464.32 100.38 455.69 110.64 443.18 110.06C428.34 109.37 420.61 100.15 421.47 88.28Z"
				fill="#633E50" />
			<mask id="mask4_30_126" style="mask-type:luminance" maskUnits="userSpaceOnUse" x="421"
				y="72" width="44" height="39">
				<path
					d="M421.47 88.28C422.15 78.93 428.53 70.28 445.23 72.48C460.99 74.57 465.49 85.87 464.83 94.12C464.32 100.38 455.69 110.64 443.18 110.06C428.34 109.37 420.61 100.15 421.47 88.28Z"
					fill="white" />
			</mask>
			<g mask="url(#mask4_30_126)">
				<path
					d="M420.44 84.31C426.91 86.06 438.38 86.64 441.06 92.82C443.38 98.18 443.12 107.73 433.98 112.05C425.61 116.05 418.71 106.26 417.33 99.61C415.95 92.96 420.44 84.31 420.44 84.31Z"
					fill="#381639" />
				<path
					d="M468.06 85.43C463.06 86.9 457.28 90.53 457.06 96.32C456.84 102.11 458.44 111.32 461.9 112.57C465.36 113.82 474.32 110.84 476.39 104.19C478.46 97.54 468.06 85.43 468.06 85.43Z"
					fill="#381639" />
			</g>
			<path
				d="M412.74 150.32C413.204 149.752 413.807 149.313 414.49 149.045C415.173 148.777 415.913 148.689 416.64 148.79C446 151.29 453.91 128 448.3 90.4C448.3 90.4 450.82 91.02 451.3 92.92C452.79 98.45 464.89 162.1 412.74 150.32Z"
				fill="#381639" />
			<path
				d="M452.86 151.3C445.24 150.3 445.34 140.9 446.31 136.49C446.31 136.49 448.62 136.68 448.56 137.49C448.22 142.24 449.07 146.42 452.62 148.9C453.57 149.54 452.86 151.3 452.86 151.3Z"
				fill="#381639" />
			<path
				d="M273.43 68.05C273.82 71.43 269.61 71.6 268.88 70.88C267.42 69.42 257.33 58.32 261.69 48.88C265.61 40.47 275.49 38.51 282.8 41.88C291.16 45.7 291.86 55.09 288.41 55.29C284.96 55.49 287.17 47.82 277.93 46C270.58 44.56 265.36 49.92 266.57 56.35C268.08 64.42 273.16 65.78 273.43 68.05Z"
				fill="#381639" />
			<path
				d="M335.49 53.39C323.06 50.68 420.66 63.25 422.85 69.53C428.14 84.74 341 54.6 335.49 53.39Z"
				fill="#FEA362" />
			<path
				d="M322.4 81.81C324.07 74.45 341.93 64.32 352.93 73.81C362.93 82.41 357.13 90.05 350 85.21C342.87 80.37 346 78.26 339 77C332 75.74 321.31 86.61 322.4 81.81Z"
				fill="#E67F4B" />
			<path
				d="M322.94 85.32C321.06 86.32 319.1 84.77 319.1 84.77C337.33 67.3 346.87 76.64 351.03 83.39C351.03 83.39 348.78 84.79 347.51 83.5C339 74.82 333.88 79.49 322.94 85.32Z"
				fill="#381639" />
		</g>
	</g>
</svg>
	