<svg width="32" height="32" viewBox="0 0 32 32" fill="none" xmlns="http://www.w3.org/2000/svg">
<g filter="url(#filter0_b_179_236)">
<rect width="32" height="32" rx="13" fill="#32343D"/>
<rect x="0.5" y="0.5" width="31" height="31" rx="12.5" stroke="url(#paint0_linear_179_236)"/>
</g>
<path d="M19.0311 15.5197C18.7911 15.5197 18.5511 15.3997 18.4111 15.1897L15.2111 10.4097C15.1011 10.2397 15.0611 10.0397 15.1011 9.8497C15.1411 9.6597 15.2511 9.47969 15.4211 9.36969L21.0811 5.57968C21.5211 5.27968 22.0511 5.17969 22.5711 5.27969C23.0911 5.37969 23.5411 5.67969 23.8411 6.11969L25.6611 8.82968C26.2711 9.73968 26.0311 10.9797 25.1111 11.5897L19.4611 15.3797C19.3211 15.4797 19.1811 15.5197 19.0311 15.5197ZM16.8811 10.1997L19.2411 13.7297L24.2711 10.3597C24.5011 10.2097 24.5611 9.89968 24.4011 9.67968L22.5811 6.96969C22.5111 6.85969 22.4011 6.7897 22.2711 6.7597C22.1411 6.7297 22.0111 6.75968 21.9011 6.82968L16.8811 10.1997Z" fill="white"/>
<path d="M13.9397 18.2417C13.6997 18.2417 13.4597 18.1217 13.3197 17.9117L10.7597 14.0917C10.5297 13.7517 10.6197 13.2817 10.9697 13.0517L15.7497 9.85174C15.9197 9.74174 16.1197 9.70172 16.3097 9.74172C16.5097 9.78172 16.6797 9.89173 16.7897 10.0617L19.3497 13.8817C19.5797 14.2217 19.4897 14.6917 19.1397 14.9217L14.3597 18.1217C14.2297 18.2017 14.0797 18.2417 13.9397 18.2417ZM12.4197 13.8817L14.1397 16.4517L17.6697 14.0917L15.9497 11.5117L12.4197 13.8817Z" fill="white"/>
<path d="M9.28039 20.8188C8.72039 20.8188 8.16039 20.5488 7.82039 20.0388L6.69039 18.3588C6.43039 17.9688 6.34039 17.5088 6.43039 17.0488C6.52039 16.5888 6.78039 16.1988 7.17039 15.9388L11.1204 13.2988C11.4604 13.0688 11.9304 13.1588 12.1604 13.5088L14.4004 16.8488C14.6304 17.1888 14.5404 17.6588 14.1904 17.8888L10.2404 20.5288C9.95039 20.7188 9.61039 20.8188 9.28039 20.8188ZM11.3304 14.9488L8.01039 17.1688C7.90039 17.2488 7.86039 17.3988 7.94039 17.5188L9.07039 19.1988C9.15039 19.3088 9.30039 19.3488 9.42039 19.2688L12.7404 17.0488L11.3304 14.9488Z" fill="white"/>
<path d="M11.5602 26.7508C11.4602 26.7508 11.3502 26.7308 11.2502 26.6808C10.8702 26.5108 10.7102 26.0608 10.8802 25.6908L15.3702 15.8908C15.5402 15.5108 15.9902 15.3508 16.3602 15.5208C16.7402 15.6908 16.9002 16.1408 16.7302 16.5108L12.2402 26.3108C12.1102 26.5908 11.8402 26.7508 11.5602 26.7508Z" fill="white"/>
<path d="M20.44 26.7493C20.15 26.7493 19.88 26.5893 19.76 26.3093L15.32 16.5093C15.15 16.1293 15.32 15.6892 15.69 15.5192C16.06 15.3492 16.51 15.5193 16.68 15.8893L21.12 25.6893C21.29 26.0693 21.12 26.5093 20.75 26.6793C20.65 26.7293 20.55 26.7493 20.44 26.7493Z" fill="white"/>
<defs>
<filter id="filter0_b_179_236" x="-32" y="-32" width="96" height="96" filterUnits="userSpaceOnUse" color-interpolation-filters="sRGB">
<feFlood flood-opacity="0" result="BackgroundImageFix"/>
<feGaussianBlur in="BackgroundImageFix" stdDeviation="16"/>
<feComposite in2="SourceAlpha" operator="in" result="effect1_backgroundBlur_179_236"/>
<feBlend mode="normal" in="SourceGraphic" in2="effect1_backgroundBlur_179_236" result="shape"/>
</filter>
<linearGradient id="paint0_linear_179_236" x1="16" y1="0" x2="16" y2="32" gradientUnits="userSpaceOnUse">
<stop stop-color="#2C2C2C"/>
<stop offset="1" stop-color="#2C2C2C" stop-opacity="0"/>
</linearGradient>
</defs>
</svg>
