<svg width="24" height="24" viewBox="0 0 24 24" fill="none" xmlns="http://www.w3.org/2000/svg">
<g clip-path="url(#clip0_45_1517)">
<path d="M20.3178 4.51754C18.7615 3.80334 17.1194 3.29361 15.4323 3.00104C15.417 2.99847 15.4013 3.00069 15.3873 3.00741C15.3733 3.01412 15.3618 3.025 15.3543 3.03854C15.1428 3.41354 14.9088 3.90404 14.7453 4.28804C12.9267 4.01205 11.0768 4.01205 9.25825 4.28804C9.07587 3.86027 8.86954 3.44311 8.64025 3.03854C8.63256 3.02515 8.62099 3.01439 8.60707 3.0077C8.59314 3.00101 8.57752 2.99869 8.56225 3.00104C6.87475 3.29204 5.23225 3.80204 3.67675 4.51754C3.66344 4.52262 3.65231 4.53216 3.64525 4.54454C0.534253 9.19304 -0.319247 13.7275 0.0992533 18.205C0.100753 18.226 0.114253 18.247 0.130753 18.2605C1.94234 19.6025 3.96864 20.627 6.12325 21.2905C6.13847 21.2953 6.15481 21.2952 6.16992 21.29C6.18502 21.2849 6.1981 21.2751 6.20725 21.262C6.66925 20.632 7.08025 19.9675 7.43425 19.2685C7.44163 19.2541 7.44416 19.2377 7.44145 19.2218C7.43875 19.2059 7.43096 19.1912 7.41925 19.18C7.4115 19.1727 7.4023 19.1671 7.39225 19.1635C6.74599 18.9152 6.1201 18.6168 5.52025 18.271C5.5035 18.2615 5.49104 18.246 5.48545 18.2275C5.47987 18.2091 5.48159 18.1892 5.49025 18.172C5.49536 18.1609 5.50307 18.1511 5.51275 18.1435C5.63875 18.049 5.76475 17.95 5.88475 17.851C5.89535 17.8425 5.90807 17.837 5.92155 17.8352C5.93502 17.8333 5.94875 17.8352 5.96125 17.8405C9.88975 19.6345 14.1423 19.6345 18.0228 17.8405C18.0357 17.8349 18.05 17.8329 18.064 17.8348C18.078 17.8366 18.0912 17.8423 18.1023 17.851C18.2223 17.95 18.3483 18.049 18.4743 18.1435C18.4845 18.151 18.4927 18.1609 18.4981 18.1723C18.5036 18.1837 18.5061 18.1963 18.5055 18.2089C18.5049 18.2215 18.5012 18.2338 18.4947 18.2447C18.4882 18.2555 18.4791 18.2646 18.4683 18.271C17.8698 18.6199 17.2431 18.918 16.5948 19.162C16.5844 19.1658 16.575 19.1718 16.5672 19.1795C16.5595 19.1873 16.5535 19.1967 16.5498 19.207C16.5463 19.2171 16.5449 19.2277 16.5457 19.2383C16.5464 19.2488 16.5494 19.2591 16.5543 19.2685C16.9143 19.966 17.3268 20.632 17.7798 21.262C17.7889 21.2751 17.802 21.2849 17.8171 21.29C17.8322 21.2952 17.8485 21.2953 17.8638 21.2905C20.022 20.6291 22.0516 19.6044 23.8653 18.2605C23.8743 18.2543 23.8819 18.246 23.8873 18.2364C23.8928 18.2268 23.896 18.2161 23.8968 18.205C24.3978 13.0285 23.0583 8.53154 20.3478 4.54604C20.345 4.53946 20.3409 4.53352 20.3358 4.52861C20.3306 4.5237 20.3245 4.51993 20.3178 4.51754ZM8.02075 15.478C6.83725 15.478 5.86375 14.392 5.86375 13.06C5.86375 11.7265 6.81925 10.6405 8.02075 10.6405C9.23125 10.6405 10.1958 11.7355 10.1778 13.06C10.1778 14.392 9.22225 15.478 8.02075 15.478ZM15.9948 15.478C14.8128 15.478 13.8378 14.392 13.8378 13.06C13.8378 11.7265 14.7933 10.6405 15.9948 10.6405C17.2053 10.6405 18.1713 11.7355 18.1518 13.06C18.1518 14.392 17.2053 15.478 15.9948 15.478Z" fill="#707A8F"/>
</g>
<defs>
<clipPath id="clip0_45_1517">
<rect width="24" height="24" fill="white"/>
</clipPath>
</defs>
</svg>
