<svg width="1153" height="767" viewBox="0 0 1153 767" fill="none" xmlns="http://www.w3.org/2000/svg">
<g opacity="0.3">
<mask id="mask0_45_1417" style="mask-type:alpha" maskUnits="userSpaceOnUse" x="-30" y="4" width="995" height="718">
<path d="M964.573 353.91C964.642 355.924 964.689 357.942 964.712 359.964L964.212 359.97C964.223 360.979 964.229 361.989 964.229 363C964.229 364.011 964.223 365.022 964.212 366.031L964.712 366.037C964.689 368.059 964.642 370.077 964.573 372.091L964.073 372.074C964.004 374.084 963.912 376.09 963.797 378.092L964.296 378.121C964.18 380.134 964.042 382.142 963.881 384.147L963.382 384.107C963.221 386.117 963.036 388.122 962.828 390.123L963.326 390.174C963.118 392.179 962.887 394.179 962.634 396.174L962.138 396.111C961.885 398.107 961.609 400.098 961.31 402.083L961.805 402.158C961.505 404.153 961.182 406.144 960.837 408.129L960.345 408.044C960 410.025 959.633 412.002 959.244 413.974L959.735 414.071C959.345 416.047 958.933 418.019 958.498 419.985L958.01 419.877C957.576 421.841 957.12 423.8 956.642 425.754L957.127 425.873C956.648 427.83 956.147 429.782 955.625 431.728L955.142 431.599C954.62 433.54 954.077 435.476 953.512 437.407L953.992 437.547C953.427 439.48 952.84 441.406 952.231 443.327L951.755 443.176C951.148 445.093 950.519 447.005 949.87 448.91L950.343 449.072C949.693 450.978 949.022 452.878 948.33 454.772L947.86 454.601C947.172 456.487 946.462 458.367 945.732 460.24L946.198 460.422C945.466 462.299 944.714 464.17 943.941 466.034L943.479 465.843C942.71 467.7 941.92 469.551 941.11 471.396L941.568 471.597C940.76 473.437 939.932 475.27 939.084 477.097L938.63 476.887C937.784 478.711 936.918 480.528 936.032 482.339L936.481 482.559C935.596 484.368 934.691 486.171 933.767 487.967L933.323 487.738C932.406 489.521 931.47 491.296 930.515 493.065L930.954 493.303C929.998 495.075 929.022 496.84 928.028 498.598L927.593 498.352C926.602 500.103 925.593 501.848 924.565 503.585L924.996 503.84C923.975 505.566 922.935 507.286 921.878 508.998L921.452 508.736C920.397 510.446 919.323 512.148 918.231 513.844L918.651 514.115C917.56 515.811 916.45 517.5 915.322 519.182L914.907 518.903C913.793 520.565 912.661 522.22 911.513 523.868L911.923 524.154C910.772 525.804 909.605 527.447 908.42 529.082L908.015 528.789C906.833 530.422 905.633 532.047 904.417 533.665L904.816 533.966C903.613 535.567 902.393 537.16 901.157 538.746L900.763 538.439C899.529 540.022 898.279 541.598 897.013 543.166L897.402 543.48C896.135 545.05 894.851 546.613 893.551 548.168L893.168 547.848C891.883 549.384 890.584 550.913 889.269 552.435L889.647 552.762C888.334 554.281 887.005 555.793 885.662 557.296L885.289 556.963C883.947 558.465 882.591 559.959 881.219 561.446L881.586 561.785C880.223 563.261 878.846 564.73 877.454 566.191L877.092 565.846C875.71 567.296 874.314 568.739 872.903 570.174L873.26 570.524C871.848 571.961 870.421 573.389 868.98 574.81L868.629 574.454C867.197 575.867 865.75 577.272 864.289 578.669L864.635 579.03C863.188 580.415 861.727 581.792 860.252 583.161L859.912 582.794C858.44 584.161 856.954 585.521 855.454 586.872L855.789 587.243C854.288 588.596 852.774 589.941 851.246 591.278L850.917 590.902C849.413 592.217 847.897 593.526 846.368 594.826L846.692 595.206C845.161 596.508 843.618 597.801 842.063 599.086L841.744 598.701C840.191 599.984 838.624 601.26 837.046 602.527L837.359 602.917C835.793 604.175 834.215 605.424 832.625 606.665L832.317 606.271C830.738 607.504 829.147 608.728 827.545 609.945L827.847 610.343C826.243 611.561 824.627 612.771 822.999 613.972L822.702 613.57C821.081 614.766 819.448 615.955 817.804 617.135L818.096 617.541C816.47 618.709 814.833 619.868 813.185 621.019L812.898 620.609C811.252 621.759 809.594 622.901 807.926 624.035L808.207 624.448C806.537 625.583 804.856 626.709 803.164 627.828L802.889 627.41C801.217 628.515 799.535 629.612 797.842 630.701L798.113 631.121C796.425 632.207 794.728 633.284 793.02 634.352L792.754 633.929C791.048 634.996 789.332 636.056 787.605 637.107L787.865 637.534C786.143 638.583 784.41 639.624 782.667 640.656L782.412 640.226C780.691 641.245 778.961 642.256 777.221 643.259L777.47 643.692C775.729 644.696 773.978 645.692 772.217 646.679L771.972 646.243C770.213 647.229 768.445 648.207 766.667 649.177L766.907 649.615C765.144 650.577 763.371 651.53 761.59 652.475L761.356 652.033C759.586 652.972 757.807 653.903 756.019 654.825L756.248 655.27C754.459 656.193 752.66 657.108 750.853 658.014L750.629 657.567C748.824 658.473 747.01 659.37 745.187 660.258L745.406 660.708C743.608 661.584 741.801 662.453 739.986 663.313L739.772 662.861C737.959 663.721 736.137 664.572 734.307 665.414L734.516 665.869C732.685 666.712 730.845 667.547 728.998 668.374L728.793 667.917C726.956 668.739 725.11 669.553 723.257 670.358L723.456 670.816C721.618 671.615 719.773 672.405 717.92 673.186L717.726 672.725C715.875 673.506 714.016 674.279 712.149 675.043L712.339 675.505C710.47 676.27 708.595 677.026 706.712 677.774L706.527 677.309C704.661 678.05 702.788 678.782 700.907 679.506L701.087 679.973C699.215 680.693 697.336 681.405 695.45 682.109L695.276 681.641C693.391 682.344 691.5 683.038 689.602 683.725L689.772 684.195C687.872 684.882 685.965 685.56 684.051 686.229L683.886 685.757C681.995 686.419 680.097 687.073 678.193 687.717L678.353 688.191C676.452 688.835 674.544 689.47 672.63 690.097L672.474 689.622C670.561 690.248 668.642 690.866 666.717 691.475L666.867 691.952C664.94 692.562 663.007 693.163 661.067 693.756L660.921 693.278C659.008 693.862 657.088 694.438 655.163 695.006L655.304 695.485C653.378 696.053 651.445 696.613 649.506 697.164L649.37 696.683C647.433 697.233 645.49 697.775 643.541 698.309L643.673 698.791C641.725 699.324 639.771 699.849 637.812 700.365L637.684 699.881C635.749 700.391 633.808 700.892 631.862 701.384L631.985 701.869C630.037 702.362 628.083 702.846 626.125 703.322L626.006 702.837C624.049 703.312 622.086 703.779 620.118 704.237L620.232 704.724C618.266 705.182 616.295 705.631 614.318 706.072L614.21 705.584C612.256 706.019 610.297 706.447 608.333 706.865L608.437 707.354C606.471 707.773 604.5 708.183 602.525 708.585L602.425 708.095C600.451 708.497 598.472 708.89 596.488 709.274L596.583 709.765C594.602 710.148 592.616 710.523 590.625 710.89L590.534 710.398C588.565 710.76 586.591 711.114 584.613 711.46L584.699 711.952C582.719 712.298 580.734 712.635 578.745 712.963L578.664 712.47C576.676 712.798 574.684 713.118 572.688 713.429L572.765 713.923C570.77 714.234 568.771 714.536 566.767 714.829L566.695 714.334C564.714 714.624 562.729 714.906 560.739 715.179L560.807 715.674C558.816 715.947 556.821 716.212 554.822 716.468L554.758 715.972C552.76 716.228 550.759 716.475 548.753 716.713L548.812 717.21C546.805 717.448 544.795 717.678 542.781 717.9L542.727 717.403C540.737 717.621 538.743 717.831 536.746 718.032L536.796 718.53C534.797 718.731 532.794 718.924 530.787 719.109L530.742 718.611C528.737 718.795 526.728 718.971 524.716 719.137L524.757 719.636C522.743 719.803 520.725 719.961 518.704 720.111L518.667 719.612C516.67 719.76 514.669 719.899 512.664 720.03L512.697 720.529C510.693 720.66 508.685 720.782 506.674 720.895L506.646 720.396C504.637 720.509 502.624 720.614 500.608 720.71L500.632 721.21C498.614 721.306 496.594 721.393 494.57 721.472L494.55 720.972C492.545 721.05 490.537 721.12 488.526 721.181L488.541 721.68C486.535 721.741 484.525 721.793 482.513 721.837L482.502 721.337C480.491 721.38 478.477 721.415 476.46 721.441L476.467 721.941C474.448 721.967 472.427 721.985 470.403 721.993L470.401 721.493C469.389 721.498 468.377 721.5 467.365 721.5C466.352 721.5 465.339 721.498 464.328 721.493L464.326 721.993C462.301 721.985 460.28 721.967 458.262 721.941L458.268 721.441C456.251 721.415 454.238 721.38 452.227 721.337L452.216 721.837C450.203 721.793 448.194 721.741 446.188 721.68L446.203 721.181C444.192 721.12 442.183 721.05 440.178 720.972L440.159 721.472C438.135 721.393 436.114 721.306 434.097 721.21L434.121 720.71C432.105 720.614 430.092 720.509 428.082 720.396L428.054 720.895C426.043 720.782 424.036 720.659 422.032 720.529L422.064 720.03C420.06 719.899 418.059 719.76 416.061 719.612L416.024 720.111C414.003 719.961 411.986 719.803 409.972 719.636L410.013 719.137C408.001 718.97 405.992 718.795 403.987 718.611L403.941 719.109C401.935 718.924 399.932 718.731 397.933 718.53L397.983 718.032C395.986 717.831 393.992 717.621 392.002 717.402L391.948 717.899C389.933 717.678 387.923 717.448 385.917 717.21L385.976 716.713C383.97 716.475 381.968 716.228 379.97 715.972L379.907 716.468C377.908 716.212 375.912 715.947 373.921 715.674L373.989 715.179C372 714.906 370.015 714.624 368.034 714.334L367.961 714.829C365.958 714.536 363.959 714.234 361.964 713.923L362.041 713.429C360.044 713.118 358.052 712.798 356.065 712.47L355.983 712.963C353.994 712.635 352.01 712.298 350.03 711.952L350.116 711.46C348.137 711.114 346.164 710.76 344.195 710.398L344.104 710.89C342.113 710.523 340.127 710.148 338.146 709.765L338.241 709.274C336.257 708.889 334.278 708.497 332.303 708.095L332.204 708.585C330.228 708.183 328.257 707.773 326.292 707.354L326.396 706.865C324.432 706.446 322.473 706.019 320.519 705.584L320.41 706.072C318.434 705.631 316.463 705.182 314.497 704.724L314.611 704.237C312.642 703.779 310.68 703.312 308.722 702.836L308.604 703.322C306.645 702.846 304.692 702.362 302.744 701.869L302.867 701.384C300.92 700.892 298.979 700.391 297.044 699.881L296.917 700.365C294.957 699.849 293.004 699.324 291.056 698.791L291.188 698.309C289.239 697.775 287.296 697.233 285.359 696.683L285.222 697.164C283.284 696.613 281.351 696.053 279.425 695.485L279.566 695.006C277.641 694.438 275.721 693.862 273.808 693.277L273.662 693.756C271.722 693.163 269.788 692.562 267.861 691.952L268.012 691.475C266.087 690.866 264.167 690.248 262.255 689.622L262.099 690.097C260.185 689.47 258.277 688.835 256.376 688.191L256.536 687.717C254.632 687.072 252.734 686.419 250.843 685.757L250.677 686.229C248.764 685.56 246.857 684.881 244.957 684.195L245.127 683.724C243.229 683.038 241.337 682.344 239.453 681.641L239.278 682.109C237.392 681.405 235.514 680.693 233.642 679.973L233.822 679.506C231.941 678.782 230.068 678.049 228.202 677.309L228.017 677.773C226.134 677.026 224.258 676.27 222.39 675.505L222.58 675.042C220.713 674.278 218.854 673.506 217.003 672.725L216.809 673.186C214.956 672.404 213.11 671.615 211.273 670.816L211.472 670.358C209.618 669.553 207.773 668.739 205.935 667.917L205.731 668.373C203.883 667.547 202.044 666.712 200.212 665.868L200.422 665.414C198.592 664.572 196.77 663.721 194.957 662.861L194.743 663.313C192.927 662.453 191.121 661.584 189.322 660.707L189.541 660.258C187.719 659.369 185.905 658.472 184.1 657.567L183.876 658.014C182.068 657.107 180.27 656.193 178.481 655.269L178.71 654.825C176.922 653.903 175.143 652.972 173.373 652.033L173.139 652.475C171.357 651.53 169.585 650.577 167.822 649.615L168.061 649.176C166.284 648.207 164.515 647.229 162.756 646.243L162.512 646.679C160.751 645.692 159 644.696 157.258 643.692L157.508 643.259C155.768 642.256 154.038 641.245 152.317 640.226L152.062 640.656C150.319 639.624 148.586 638.583 146.863 637.534L147.123 637.107C145.397 636.056 143.681 634.996 141.974 633.928L141.709 634.352C140.001 633.283 138.303 632.206 136.616 631.121L136.887 630.701C135.194 629.612 133.512 628.515 131.84 627.41L131.564 627.827C129.873 626.709 128.192 625.583 126.522 624.448L126.803 624.034C125.134 622.901 123.477 621.759 121.831 620.609L121.544 621.019C119.896 619.868 118.259 618.708 116.633 617.541L116.924 617.135C115.28 615.955 113.648 614.766 112.027 613.569L111.73 613.972C110.102 612.77 108.486 611.56 106.882 610.343L107.184 609.944C105.581 608.728 103.99 607.503 102.411 606.271L102.104 606.665C100.514 605.424 98.9358 604.174 97.3699 602.917L97.6829 602.527C96.1044 601.26 94.5382 599.984 92.9845 598.7L92.6661 599.086C91.1106 597.801 89.5676 596.507 88.0372 595.206L88.361 594.825C86.832 593.525 85.3156 592.217 83.8119 590.901L83.4827 591.277C81.9551 589.941 80.4408 588.596 78.9397 587.243L79.2744 586.872C77.7751 585.52 76.2891 584.161 74.8166 582.794L74.4764 583.16C73.002 581.791 71.5411 580.415 70.0937 579.03L70.4393 578.669C68.9788 577.272 67.5322 575.867 66.0995 574.454L65.7484 574.81C64.3078 573.389 62.8813 571.96 61.469 570.524L61.8255 570.173C60.4151 568.739 59.0189 567.296 57.6372 565.846L57.2752 566.191C55.8831 564.73 54.5055 563.261 53.1428 561.784L53.5102 561.445C52.1384 559.959 50.7815 558.465 49.4398 556.963L49.0669 557.296C47.7234 555.792 46.395 554.281 45.0819 552.761L45.4602 552.434C44.1451 550.913 42.8454 549.384 41.5613 547.847L41.1776 548.168C39.878 546.613 38.5942 545.05 37.3265 543.48L37.7156 543.166C36.4496 541.597 35.1997 540.022 33.966 538.439L33.5716 538.746C32.3356 537.16 31.1159 535.566 29.9125 533.966L30.3121 533.665C29.0958 532.047 27.8961 530.421 26.7135 528.788L26.3085 529.082C25.1241 527.446 23.9566 525.803 22.8062 524.153L23.2164 523.867C22.0677 522.22 20.9362 520.565 19.8219 518.903L19.4066 519.181C18.2792 517.499 17.1694 515.81 16.0774 514.114L16.4978 513.844C15.4062 512.148 14.3324 510.445 13.2766 508.735L12.8512 508.998C11.7937 507.285 10.7543 505.566 9.73311 503.839L10.1635 503.585C9.13578 501.847 8.12657 500.103 7.13602 498.351L6.7008 498.597C5.70654 496.839 4.73103 495.074 3.77446 493.302L4.21443 493.065C3.25943 491.296 2.32333 489.52 1.40633 487.738L0.961727 487.967C0.0377121 486.17 -0.866961 484.368 -1.75211 482.558L-1.30297 482.338C-2.18872 480.528 -3.05489 478.71 -3.90127 476.886L-4.35481 477.097C-5.20264 475.27 -6.03066 473.436 -6.8387 471.596L-6.3809 471.395C-7.19095 469.551 -7.98086 467.7 -8.75046 465.842L-9.21238 466.034C-9.98493 464.169 -10.7371 462.299 -11.4686 460.422L-11.0027 460.24C-11.7329 458.366 -12.4426 456.486 -13.1315 454.6L-13.6011 454.772C-14.2929 452.878 -14.9639 450.978 -15.6137 449.071L-15.1405 448.91C-15.7901 447.004 -16.4185 445.093 -17.0257 443.176L-17.5023 443.327C-18.1106 441.406 -18.6975 439.479 -19.2629 437.547L-18.783 437.406C-19.3478 435.476 -19.8911 433.54 -20.4126 431.598L-20.8955 431.728C-21.4182 429.781 -21.9192 427.83 -22.3982 425.872L-21.9126 425.753C-22.3907 423.8 -22.8468 421.841 -23.2809 419.876L-23.7691 419.984C-24.2035 418.018 -24.6158 416.047 -25.0059 414.07L-24.5153 413.973C-24.9043 412.002 -25.2711 410.025 -25.6154 408.043L-26.1081 408.129C-26.4531 406.143 -26.7756 404.153 -27.0755 402.157L-26.581 402.083C-26.8795 400.097 -27.1555 398.106 -27.4088 396.111L-27.9048 396.174C-28.1581 394.178 -28.3887 392.178 -28.5966 390.174L-28.0992 390.122C-28.3067 388.121 -28.4914 386.116 -28.6531 384.106L-29.1515 384.146C-29.3128 382.142 -29.4513 380.133 -29.5669 378.12L-29.0677 378.091C-29.1826 376.09 -29.2747 374.083 -29.344 372.073L-29.8437 372.09C-29.913 370.076 -29.9594 368.058 -29.9826 366.036L-29.4826 366.03C-29.4942 365.021 -29.5 364.011 -29.5 363C-29.5 361.989 -29.4942 360.978 -29.4826 359.969L-29.9826 359.963C-29.9594 357.941 -29.913 355.923 -29.8436 353.909L-29.3439 353.926C-29.2747 351.916 -29.1826 349.91 -29.0676 347.908L-29.5668 347.879C-29.4513 345.866 -29.3127 343.858 -29.1514 341.853L-28.6531 341.893C-28.4913 339.883 -28.3066 337.878 -28.0992 335.877L-28.5965 335.826C-28.3886 333.821 -28.158 331.821 -27.9047 329.826L-27.4087 329.889C-27.1554 327.893 -26.8794 325.902 -26.581 323.917L-27.0754 323.842C-26.7755 321.847 -26.453 319.856 -26.108 317.871L-25.6153 317.956C-25.271 315.975 -24.9042 313.998 -24.5152 312.026L-25.0057 311.929C-24.6157 309.953 -24.2034 307.981 -23.769 306.015L-23.2808 306.123C-22.8467 304.159 -22.3905 302.2 -21.9124 300.246L-22.3981 300.127C-21.9191 298.17 -21.4181 296.218 -20.8954 294.272L-20.4125 294.401C-19.8909 292.46 -19.3477 290.524 -18.7829 288.593L-19.2628 288.453C-18.6974 286.52 -18.1105 284.594 -17.5022 282.673L-17.0255 282.824C-16.4184 280.907 -15.7899 278.995 -15.1403 277.09L-15.6135 276.928C-14.9637 275.022 -14.2928 273.122 -13.6009 271.228L-13.1313 271.399C-12.4424 269.513 -11.7328 267.633 -11.0025 265.76L-11.4684 265.578C-10.7369 263.701 -9.98475 261.83 -9.21219 259.966L-8.75028 260.157C-7.98068 258.3 -7.19076 256.449 -6.38071 254.604L-6.83851 254.403C-6.03047 252.563 -5.20245 250.73 -4.35462 248.903L-3.90108 249.113C-3.05469 247.289 -2.18852 245.472 -1.30276 243.661L-1.7519 243.441C-0.866756 241.632 0.0379162 239.829 0.961933 238.033L1.40654 238.262C2.32355 236.479 3.25965 234.704 4.21466 232.935L3.77468 232.697C4.73126 230.925 5.70678 229.16 6.70105 227.402L7.13626 227.648C8.12682 225.897 9.13602 224.152 10.1637 222.415L9.73336 222.16C10.7546 220.434 11.794 218.714 12.8514 217.002L13.2769 217.264C14.3326 215.554 15.4064 213.852 16.4981 212.156L16.0777 211.885C17.1697 210.189 18.2795 208.5 19.4069 206.818L19.8222 207.097C20.9365 205.435 22.068 203.78 23.2167 202.132L22.8065 201.846C23.9569 200.196 25.1244 198.553 26.3088 196.918L26.7138 197.211C27.8964 195.578 29.0961 193.953 30.3124 192.335L29.9128 192.034C31.1162 190.433 32.3359 188.84 33.5719 187.254L33.9663 187.561C35.2 185.978 36.4499 184.402 37.7159 182.834L37.3268 182.52C38.5946 180.95 39.8783 179.387 41.178 177.832L41.5616 178.152C42.8458 176.616 44.1455 175.087 45.4605 173.565L45.0822 173.238C46.3953 171.719 47.7237 170.207 49.0673 168.704L49.4401 169.037C50.7818 167.535 52.1387 166.041 53.5105 164.554L53.1431 164.215C54.5059 162.739 55.8834 161.27 57.2755 159.809L57.6375 160.154C59.0193 158.704 60.4155 157.261 61.8259 155.826L61.4693 155.476C62.8816 154.039 64.3081 152.611 65.7488 151.19L66.0999 151.546C67.5325 150.133 68.9792 148.728 70.4397 147.331L70.094 146.97C71.5414 145.585 73.0024 144.208 74.4768 142.839L74.8169 143.206C76.2895 141.839 77.7755 140.479 79.2748 139.128L78.94 138.757C80.4411 137.404 81.9555 136.059 83.483 134.722L83.8123 135.098C85.316 133.783 86.8324 132.474 88.3614 131.174L88.0375 130.793C89.5679 129.492 91.1109 128.199 92.6664 126.914L92.9849 127.299C94.5386 126.016 96.1048 124.74 97.6833 123.473L97.3703 123.083C98.9362 121.825 100.514 120.576 102.104 119.335L102.412 119.729C103.991 118.496 105.582 117.272 107.184 116.055L106.882 115.657C108.486 114.439 110.102 113.229 111.73 112.028L112.027 112.43C113.648 111.234 115.281 110.045 116.925 108.865L116.633 108.459C118.259 107.291 119.897 106.132 121.545 104.981L121.831 105.391C123.477 104.241 125.135 103.099 126.803 101.965L126.522 101.552C128.192 100.417 129.873 99.2906 131.565 98.1725L131.841 98.5896C133.512 97.4846 135.194 96.3878 136.887 95.2992L136.616 94.8787C138.304 93.7934 140.002 92.7163 141.71 91.6475L141.975 92.0714C143.681 91.0036 145.397 89.9441 147.124 88.893L146.864 88.4659C148.587 87.4169 150.32 86.3762 152.062 85.3438L152.317 85.774C154.038 84.7547 155.768 83.7436 157.508 82.7408L157.259 82.3076C159 81.3038 160.752 80.3082 162.512 79.321L162.757 79.7572C164.516 78.7709 166.284 77.793 168.062 76.8235L167.822 76.3846C169.586 75.423 171.358 74.4698 173.139 73.5249L173.373 73.9666C175.143 73.0277 176.922 72.0971 178.71 71.1747L178.481 70.7304C180.271 69.8072 182.069 68.8924 183.876 67.986L184.1 68.4329C185.905 67.5274 187.719 66.6304 189.542 65.7418L189.323 65.2924C191.121 64.4156 192.928 63.547 194.743 62.6868L194.957 63.1387C196.77 62.2793 198.592 61.4282 200.422 60.5855L200.213 60.1314C202.044 59.2879 203.884 58.4529 205.732 57.6264L205.936 58.0828C207.773 57.2608 209.619 56.4472 211.472 55.6421L211.273 55.1835C213.111 54.3853 214.956 53.5954 216.809 52.8139L217.003 53.2746C218.855 52.4938 220.714 51.7214 222.58 50.9575L222.391 50.4947C224.259 49.7301 226.134 48.974 228.018 48.2264L228.202 48.6911C230.068 47.9503 231.941 47.2179 233.822 46.4939L233.642 46.0273C235.514 45.3068 237.393 44.5946 239.279 43.8909L239.454 44.3593C241.338 43.6562 243.229 42.9615 245.128 42.2754L244.958 41.8052C246.857 41.1184 248.764 40.4402 250.678 39.7706L250.843 40.2425C252.734 39.5808 254.632 38.9275 256.536 38.2826L256.376 37.809C258.277 37.1652 260.185 36.5298 262.099 35.903L262.255 36.3781C264.168 35.7518 266.087 35.1339 268.013 34.5246L267.862 34.0479C269.789 33.4381 271.722 32.8368 273.662 32.2442L273.808 32.7224C275.722 32.1379 277.641 31.5618 279.567 30.9942L279.425 30.5146C281.352 29.9466 283.284 29.3872 285.223 28.8362L285.36 29.3172C287.296 28.7667 289.239 28.2247 291.188 27.6913L291.056 27.209C293.004 26.6759 294.958 26.1513 296.917 25.6354L297.045 26.1189C298.98 25.6094 300.921 25.1083 302.867 24.6157L302.744 24.131C304.692 23.638 306.646 23.1535 308.605 22.6776L308.723 23.1635C310.68 22.6879 312.643 22.2209 314.611 21.7626L314.498 21.2756C316.463 20.8178 318.434 20.3686 320.411 19.928L320.52 20.4161C322.473 19.9805 324.432 19.5534 326.397 19.1349L326.292 18.6458C328.258 18.227 330.229 17.8166 332.204 17.4148L332.304 17.9048C334.278 17.5034 336.257 17.1105 338.241 16.7262L338.146 16.2354C340.127 15.8517 342.114 15.4766 344.104 15.1102L344.195 15.6019C346.164 15.2395 348.138 14.8856 350.116 14.5403L350.03 14.0477C352.01 13.7021 353.995 13.365 355.984 13.0366L356.065 13.5299C358.053 13.2017 360.045 12.882 362.041 12.5711L361.965 12.077C363.959 11.7664 365.958 11.4644 367.962 11.171L368.034 11.6658C370.015 11.3757 372 11.0942 373.99 10.8212L373.922 10.3259C375.913 10.0527 377.908 9.78807 379.907 9.53208L379.971 10.028C381.969 9.77223 383.971 9.52505 385.977 9.28653L385.918 8.79003C387.924 8.5515 389.934 8.32163 391.948 8.10048L392.003 8.59749C393.992 8.37902 395.986 8.16906 397.984 7.96767L397.934 7.47019C399.932 7.26865 401.935 7.07569 403.942 6.89136L403.987 7.38926C405.993 7.20507 408.001 7.02949 410.014 6.8626L409.972 6.36431C411.986 6.19729 414.004 6.03895 416.025 5.88935L416.062 6.38798C418.059 6.24013 420.061 6.10081 422.065 5.97008L422.033 5.47114C424.037 5.34044 426.044 5.21833 428.055 5.10484L428.083 5.60405C430.092 5.49065 432.105 5.38587 434.121 5.28977L434.097 4.79034C436.115 4.69417 438.136 4.60668 440.16 4.52793L440.179 5.02755C442.184 4.94954 444.192 4.8801 446.203 4.8193L446.188 4.31952C448.195 4.25886 450.204 4.20678 452.216 4.16333L452.227 4.66322C454.238 4.61979 456.252 4.585 458.269 4.55887L458.263 4.05891C460.281 4.03277 462.302 4.0153 464.326 4.00656L464.328 4.50655C465.34 4.50219 466.352 4.5 467.365 4.5C468.378 4.5 469.39 4.50219 470.401 4.50656L470.404 4.00656C472.428 4.0153 474.449 4.03277 476.467 4.05892L476.461 4.55888C478.478 4.58501 480.492 4.61981 482.503 4.66323L482.513 4.16335C484.526 4.2068 486.535 4.25888 488.542 4.31954L488.526 4.81931C490.538 4.88012 492.546 4.94956 494.551 5.02758L494.57 4.52795C496.594 4.60671 498.615 4.6942 500.632 4.79037L500.609 5.2898C502.625 5.3859 504.637 5.49068 506.647 5.60408L506.675 5.10488C508.686 5.21836 510.693 5.34048 512.697 5.47118L512.665 5.97012C514.669 6.10085 516.67 6.24017 518.668 6.38803L518.705 5.88939C520.726 6.039 522.743 6.19733 524.757 6.36436L524.716 6.86264C526.729 7.02954 528.737 7.20512 530.742 7.38932L530.788 6.89141C532.795 7.07575 534.797 7.26871 536.796 7.47025L536.746 7.96773C538.744 8.16912 540.737 8.37908 542.727 8.59755L542.782 8.10054C544.796 8.32169 546.806 8.55156 548.812 8.7901L548.753 9.2866C550.759 9.52512 552.761 9.7723 554.759 10.0281L554.822 9.53215C556.822 9.78814 558.817 10.0528 560.808 10.3259L560.74 10.8213C562.729 11.0943 564.715 11.3758 566.695 11.6658L566.768 11.1711C568.771 11.4644 570.771 11.7665 572.765 12.0771L572.688 12.5712C574.685 12.8821 576.677 13.2017 578.664 13.53L578.746 13.0366C580.735 13.3651 582.72 13.7022 584.699 14.0478L584.613 14.5403C586.592 14.8857 588.566 15.2396 590.535 15.602L590.625 15.1103C592.616 15.4767 594.602 15.8518 596.583 16.2355L596.488 16.7263C598.472 17.1106 600.452 17.5034 602.426 17.9049L602.525 17.4149C604.501 17.8167 606.472 18.2271 608.437 18.646L608.333 19.135C610.297 19.5535 612.256 19.9806 614.21 20.4162L614.319 19.9281C616.295 20.3687 618.266 20.8179 620.232 21.2757L620.119 21.7627C622.087 22.221 624.05 22.688 626.007 23.1636L626.125 22.6777C628.084 23.1536 630.037 23.6381 631.985 24.1311L631.863 24.6158C633.809 25.1084 635.75 25.6095 637.685 26.119L637.812 25.6355C639.772 26.1515 641.726 26.676 643.673 27.2092L643.542 27.6914C645.49 28.2248 647.433 28.7668 649.37 29.3173L649.507 28.8363C651.445 29.3873 653.378 29.9468 655.305 30.5147L655.163 30.9943C657.089 31.562 659.008 32.1381 660.921 32.7226L661.067 32.2444C663.007 32.837 664.941 33.4382 666.868 34.0481L666.717 34.5248C668.643 35.1341 670.562 35.7519 672.475 36.3783L672.63 35.9031C674.544 36.53 676.452 37.1654 678.354 37.8091L678.193 38.2827C680.098 38.9276 681.995 39.581 683.887 40.2427L684.052 39.7708C685.965 40.4404 687.872 41.1186 689.772 41.8053L689.602 42.2756C691.5 42.9617 693.392 43.6564 695.276 44.3595L695.451 43.891C697.337 44.5948 699.216 45.3069 701.087 46.0275L700.908 46.4941C702.788 47.2181 704.662 47.9505 706.528 48.6913L706.712 48.2266C708.595 48.9742 710.471 49.7303 712.339 50.4949L712.15 50.9577C714.016 51.7216 715.875 52.494 717.726 53.2748L717.921 52.8141C719.774 53.5956 721.619 54.3855 723.456 55.1837L723.257 55.6423C725.111 56.4474 726.956 57.261 728.794 58.083L728.998 57.6266C730.846 58.4531 732.685 59.2881 734.517 60.1316L734.308 60.5857C736.138 61.4284 737.959 62.2795 739.773 63.1389L739.987 62.687C741.802 63.5472 743.609 64.4158 745.407 65.2926L745.188 65.742C747.01 66.6306 748.824 67.5276 750.629 68.4331L750.854 67.9862C752.661 68.8926 754.459 69.8074 756.249 70.7306L756.019 71.175C757.807 72.0973 759.586 73.0279 761.356 73.9669L761.591 73.5252C763.372 74.47 765.144 75.4233 766.907 76.3848L766.668 76.8237C768.445 77.7932 770.214 78.7711 771.973 79.7574L772.217 79.3213C773.978 80.3085 775.729 81.304 777.471 82.3079L777.221 82.7411C778.961 83.7439 780.692 84.755 782.412 85.7743L782.667 85.3441C784.41 86.3764 786.143 87.4171 787.866 88.4662L787.606 88.8932C789.332 89.9444 791.049 91.0039 792.755 92.0716L793.02 91.6478C794.728 92.7166 796.426 93.7937 798.113 94.879L797.843 95.2995C799.535 96.3881 801.217 97.4849 802.889 98.5898L803.165 98.1727C804.856 99.2909 806.537 100.417 808.207 101.552L807.926 101.966C809.595 103.099 811.252 104.241 812.899 105.391L813.185 104.981C814.833 106.132 816.47 107.292 818.096 108.459L817.805 108.865C819.449 110.045 821.081 111.234 822.703 112.431L822.999 112.028C824.627 113.23 826.243 114.44 827.848 115.657L827.545 116.056C829.148 117.272 830.739 118.497 832.318 119.729L832.625 119.335C834.215 120.576 835.793 121.826 837.359 123.083L837.046 123.473C838.625 124.74 840.191 126.016 841.745 127.3L842.063 126.914C843.619 128.199 845.162 129.493 846.692 130.794L846.368 131.175C847.897 132.475 849.414 133.783 850.917 135.099L851.247 134.722C852.774 136.059 854.288 137.404 855.789 138.757L855.455 139.129C856.954 140.48 858.44 141.839 859.913 143.206L860.253 142.84C861.727 144.209 863.188 145.585 864.635 146.97L864.29 147.331C865.75 148.728 867.197 150.133 868.63 151.546L868.981 151.19C870.421 152.611 871.848 154.04 873.26 155.476L872.904 155.827C874.314 157.261 875.71 158.704 877.092 160.154L877.454 159.809C878.846 161.27 880.224 162.739 881.586 164.216L881.219 164.555C882.591 166.041 883.948 167.535 885.289 169.037L885.662 168.704C887.006 170.208 888.334 171.719 889.647 173.239L889.269 173.566C890.584 175.087 891.884 176.616 893.168 178.153L893.552 177.832C894.851 179.387 896.135 180.95 897.403 182.52L897.014 182.834C898.28 184.403 899.529 185.978 900.763 187.561L901.158 187.254C902.393 188.84 903.613 190.434 904.817 192.035L904.417 192.335C905.633 193.953 906.833 195.579 908.016 197.212L908.421 196.918C909.605 198.554 910.773 200.197 911.923 201.847L911.513 202.133C912.661 203.78 913.793 205.435 914.907 207.097L915.323 206.819C916.45 208.501 917.56 210.19 918.652 211.886L918.231 212.156C919.323 213.852 920.397 215.555 921.453 217.265L921.878 217.002C922.935 218.715 923.975 220.434 924.996 222.161L924.566 222.415C925.593 224.153 926.603 225.897 927.593 227.649L928.028 227.403C929.023 229.161 929.998 230.926 930.955 232.698L930.515 232.935C931.47 234.704 932.406 236.48 933.323 238.262L933.767 238.033C934.691 239.83 935.596 241.632 936.481 243.442L936.032 243.662C936.918 245.472 937.784 247.29 938.63 249.114L939.084 248.903C939.932 250.73 940.76 252.564 941.568 254.404L941.11 254.605C941.92 256.449 942.71 258.3 943.48 260.158L943.942 259.966C944.714 261.831 945.466 263.701 946.198 265.578L945.732 265.76C946.462 267.634 947.172 269.514 947.861 271.4L948.33 271.228C949.022 273.122 949.693 275.022 950.343 276.929L949.87 277.09C950.519 278.996 951.148 280.907 951.755 282.824L952.232 282.673C952.84 284.594 953.427 286.521 953.992 288.453L953.512 288.594C954.077 290.524 954.62 292.46 955.142 294.402L955.625 294.272C956.147 296.219 956.648 298.17 957.127 300.128L956.642 300.247C957.12 302.2 957.576 304.159 958.01 306.124L958.498 306.016C958.933 307.982 959.345 309.953 959.735 311.93L959.245 312.027C959.633 313.998 960 315.975 960.345 317.957L960.837 317.871C961.182 319.857 961.505 321.847 961.805 323.843L961.31 323.917C961.609 325.903 961.885 327.894 962.138 329.889L962.634 329.826C962.887 331.822 963.118 333.822 963.326 335.826L962.828 335.878C963.036 337.879 963.221 339.884 963.382 341.894L963.881 341.854C964.042 343.858 964.18 345.867 964.296 347.88L963.797 347.909C963.912 349.91 964.004 351.917 964.073 353.927L964.573 353.91Z" fill="url(#paint0_linear_45_1417)" fill-opacity="0.56" stroke="url(#paint1_linear_45_1417)" stroke-dasharray="6 6"/>
</mask>
<g mask="url(#mask0_45_1417)">
<line x1="947.014" y1="766.727" x2="947.014" y2="0.481842" stroke="url(#paint2_linear_45_1417)" stroke-dasharray="6 6"/>
<line x1="900.289" y1="766.727" x2="900.289" y2="0.481842" stroke="url(#paint3_linear_45_1417)" stroke-dasharray="6 6"/>
<line x1="853.568" y1="766.727" x2="853.568" y2="0.481842" stroke="url(#paint4_linear_45_1417)" stroke-dasharray="6 6"/>
<line x1="806.848" y1="766.727" x2="806.848" y2="0.481842" stroke="url(#paint5_linear_45_1417)" stroke-dasharray="6 6"/>
<line x1="760.127" y1="766.727" x2="760.127" y2="0.481842" stroke="url(#paint6_linear_45_1417)" stroke-dasharray="6 6"/>
<line x1="713.402" y1="766.727" x2="713.402" y2="0.481842" stroke="url(#paint7_linear_45_1417)" stroke-dasharray="6 6"/>
<line x1="666.682" y1="766.727" x2="666.682" y2="0.481842" stroke="url(#paint8_linear_45_1417)" stroke-dasharray="6 6"/>
<line x1="619.961" y1="766.727" x2="619.961" y2="0.481842" stroke="url(#paint9_linear_45_1417)" stroke-dasharray="6 6"/>
<line x1="573.236" y1="766.727" x2="573.236" y2="0.481842" stroke="url(#paint10_linear_45_1417)" stroke-dasharray="6 6"/>
<line x1="526.51" y1="766.727" x2="526.51" y2="0.481842" stroke="url(#paint11_linear_45_1417)" stroke-dasharray="6 6"/>
<line x1="479.766" y1="766.738" x2="479.766" y2="0.493408" stroke="url(#paint12_linear_45_1417)" stroke-dasharray="6 6"/>
<line x1="433.045" y1="766.738" x2="433.045" y2="0.493408" stroke="url(#paint13_linear_45_1417)" stroke-dasharray="6 6"/>
<line x1="386.32" y1="766.738" x2="386.32" y2="0.493408" stroke="url(#paint14_linear_45_1417)" stroke-dasharray="6 6"/>
<line x1="339.6" y1="766.738" x2="339.6" y2="0.493408" stroke="url(#paint15_linear_45_1417)" stroke-dasharray="6 6"/>
<line x1="292.879" y1="766.738" x2="292.879" y2="0.493408" stroke="url(#paint16_linear_45_1417)" stroke-dasharray="6 6"/>
<line x1="246.154" y1="766.738" x2="246.154" y2="0.493408" stroke="url(#paint17_linear_45_1417)" stroke-dasharray="6 6"/>
<line x1="199.434" y1="766.738" x2="199.434" y2="0.493408" stroke="url(#paint18_linear_45_1417)" stroke-dasharray="6 6"/>
<line x1="152.707" y1="766.738" x2="152.707" y2="0.493408" stroke="url(#paint19_linear_45_1417)" stroke-dasharray="6 6"/>
<line x1="105.988" y1="766.738" x2="105.988" y2="0.493408" stroke="url(#paint20_linear_45_1417)" stroke-dasharray="6 6"/>
<line x1="59.2715" y1="766.738" x2="59.2716" y2="0.493408" stroke="url(#paint21_linear_45_1417)" stroke-dasharray="6 6"/>
<line x1="12.541" y1="766.738" x2="12.5411" y2="0.493408" stroke="url(#paint22_linear_45_1417)" stroke-dasharray="6 6"/>
<line x1="-205.617" y1="686.811" x2="1260.53" y2="686.811" stroke="url(#paint23_linear_45_1417)" stroke-dasharray="6 6"/>
<line x1="-205.617" y1="640.088" x2="1260.53" y2="640.088" stroke="url(#paint24_linear_45_1417)" stroke-dasharray="6 6"/>
<line x1="-205.617" y1="593.365" x2="1260.53" y2="593.365" stroke="url(#paint25_linear_45_1417)" stroke-dasharray="6 6"/>
<line x1="-205.617" y1="546.643" x2="1260.53" y2="546.643" stroke="url(#paint26_linear_45_1417)" stroke-dasharray="6 6"/>
<line x1="-205.617" y1="499.922" x2="1260.53" y2="499.922" stroke="url(#paint27_linear_45_1417)" stroke-dasharray="6 6"/>
<line x1="-205.617" y1="453.197" x2="1260.53" y2="453.197" stroke="url(#paint28_linear_45_1417)" stroke-dasharray="6 6"/>
<line x1="-205.617" y1="406.475" x2="1260.53" y2="406.475" stroke="url(#paint29_linear_45_1417)" stroke-dasharray="6 6"/>
<line x1="-205.617" y1="359.754" x2="1260.53" y2="359.754" stroke="url(#paint30_linear_45_1417)" stroke-dasharray="6 6"/>
<line x1="-205.617" y1="313.031" x2="1260.53" y2="313.031" stroke="url(#paint31_linear_45_1417)" stroke-dasharray="6 6"/>
<line x1="-205.617" y1="266.309" x2="1260.53" y2="266.309" stroke="url(#paint32_linear_45_1417)" stroke-dasharray="6 6"/>
<line x1="-205.617" y1="219.588" x2="1260.53" y2="219.588" stroke="url(#paint33_linear_45_1417)" stroke-dasharray="6 6"/>
<line x1="-205.617" y1="172.865" x2="1260.53" y2="172.865" stroke="url(#paint34_linear_45_1417)" stroke-dasharray="6 6"/>
<line x1="-205.617" y1="126.143" x2="1260.53" y2="126.143" stroke="url(#paint35_linear_45_1417)" stroke-dasharray="6 6"/>
<line x1="-205.617" y1="79.4199" x2="1260.53" y2="79.4201" stroke="url(#paint36_linear_45_1417)" stroke-dasharray="6 6"/>
<line x1="-205.617" y1="32.6992" x2="1260.53" y2="32.6994" stroke="url(#paint37_linear_45_1417)" stroke-dasharray="6 6"/>
</g>
</g>
<defs>
<linearGradient id="paint0_linear_45_1417" x1="467.365" y1="4" x2="467.365" y2="722" gradientUnits="userSpaceOnUse">
<stop stop-color="#D9D9D9"/>
<stop offset="1" stop-color="#D9D9D9" stop-opacity="0"/>
</linearGradient>
<linearGradient id="paint1_linear_45_1417" x1="467.365" y1="4" x2="467.365" y2="722" gradientUnits="userSpaceOnUse">
<stop stop-color="#727272"/>
<stop offset="1" stop-color="#727272" stop-opacity="0"/>
</linearGradient>
<linearGradient id="paint2_linear_45_1417" x1="947.514" y1="383.604" x2="948.514" y2="383.604" gradientUnits="userSpaceOnUse">
<stop stop-color="#727272"/>
<stop offset="1" stop-color="#727272" stop-opacity="0"/>
</linearGradient>
<linearGradient id="paint3_linear_45_1417" x1="900.789" y1="383.604" x2="901.789" y2="383.604" gradientUnits="userSpaceOnUse">
<stop stop-color="#727272"/>
<stop offset="1" stop-color="#727272" stop-opacity="0"/>
</linearGradient>
<linearGradient id="paint4_linear_45_1417" x1="854.068" y1="383.604" x2="855.068" y2="383.604" gradientUnits="userSpaceOnUse">
<stop stop-color="#727272"/>
<stop offset="1" stop-color="#727272" stop-opacity="0"/>
</linearGradient>
<linearGradient id="paint5_linear_45_1417" x1="807.348" y1="383.604" x2="808.348" y2="383.604" gradientUnits="userSpaceOnUse">
<stop stop-color="#727272"/>
<stop offset="1" stop-color="#727272" stop-opacity="0"/>
</linearGradient>
<linearGradient id="paint6_linear_45_1417" x1="760.627" y1="383.604" x2="761.627" y2="383.604" gradientUnits="userSpaceOnUse">
<stop stop-color="#727272"/>
<stop offset="1" stop-color="#727272" stop-opacity="0"/>
</linearGradient>
<linearGradient id="paint7_linear_45_1417" x1="713.902" y1="383.604" x2="714.902" y2="383.604" gradientUnits="userSpaceOnUse">
<stop stop-color="#727272"/>
<stop offset="1" stop-color="#727272" stop-opacity="0"/>
</linearGradient>
<linearGradient id="paint8_linear_45_1417" x1="667.182" y1="383.604" x2="668.182" y2="383.604" gradientUnits="userSpaceOnUse">
<stop stop-color="#727272"/>
<stop offset="1" stop-color="#727272" stop-opacity="0"/>
</linearGradient>
<linearGradient id="paint9_linear_45_1417" x1="620.461" y1="383.604" x2="621.461" y2="383.604" gradientUnits="userSpaceOnUse">
<stop stop-color="#727272"/>
<stop offset="1" stop-color="#727272" stop-opacity="0"/>
</linearGradient>
<linearGradient id="paint10_linear_45_1417" x1="573.736" y1="383.604" x2="574.736" y2="383.604" gradientUnits="userSpaceOnUse">
<stop stop-color="#727272"/>
<stop offset="1" stop-color="#727272" stop-opacity="0"/>
</linearGradient>
<linearGradient id="paint11_linear_45_1417" x1="527.01" y1="383.604" x2="528.01" y2="383.604" gradientUnits="userSpaceOnUse">
<stop stop-color="#727272"/>
<stop offset="1" stop-color="#727272" stop-opacity="0"/>
</linearGradient>
<linearGradient id="paint12_linear_45_1417" x1="480.266" y1="383.616" x2="481.266" y2="383.616" gradientUnits="userSpaceOnUse">
<stop stop-color="#727272"/>
<stop offset="1" stop-color="#727272" stop-opacity="0"/>
</linearGradient>
<linearGradient id="paint13_linear_45_1417" x1="433.545" y1="383.616" x2="434.545" y2="383.616" gradientUnits="userSpaceOnUse">
<stop stop-color="#727272"/>
<stop offset="1" stop-color="#727272" stop-opacity="0"/>
</linearGradient>
<linearGradient id="paint14_linear_45_1417" x1="386.82" y1="383.616" x2="387.82" y2="383.616" gradientUnits="userSpaceOnUse">
<stop stop-color="#727272"/>
<stop offset="1" stop-color="#727272" stop-opacity="0"/>
</linearGradient>
<linearGradient id="paint15_linear_45_1417" x1="340.1" y1="383.616" x2="341.1" y2="383.616" gradientUnits="userSpaceOnUse">
<stop stop-color="#727272"/>
<stop offset="1" stop-color="#727272" stop-opacity="0"/>
</linearGradient>
<linearGradient id="paint16_linear_45_1417" x1="293.379" y1="383.616" x2="294.379" y2="383.616" gradientUnits="userSpaceOnUse">
<stop stop-color="#727272"/>
<stop offset="1" stop-color="#727272" stop-opacity="0"/>
</linearGradient>
<linearGradient id="paint17_linear_45_1417" x1="246.654" y1="383.616" x2="247.654" y2="383.616" gradientUnits="userSpaceOnUse">
<stop stop-color="#727272"/>
<stop offset="1" stop-color="#727272" stop-opacity="0"/>
</linearGradient>
<linearGradient id="paint18_linear_45_1417" x1="199.934" y1="383.616" x2="200.934" y2="383.616" gradientUnits="userSpaceOnUse">
<stop stop-color="#727272"/>
<stop offset="1" stop-color="#727272" stop-opacity="0"/>
</linearGradient>
<linearGradient id="paint19_linear_45_1417" x1="153.207" y1="383.616" x2="154.207" y2="383.616" gradientUnits="userSpaceOnUse">
<stop stop-color="#727272"/>
<stop offset="1" stop-color="#727272" stop-opacity="0"/>
</linearGradient>
<linearGradient id="paint20_linear_45_1417" x1="106.488" y1="383.616" x2="107.488" y2="383.616" gradientUnits="userSpaceOnUse">
<stop stop-color="#727272"/>
<stop offset="1" stop-color="#727272" stop-opacity="0"/>
</linearGradient>
<linearGradient id="paint21_linear_45_1417" x1="59.7715" y1="383.616" x2="60.7715" y2="383.616" gradientUnits="userSpaceOnUse">
<stop stop-color="#727272"/>
<stop offset="1" stop-color="#727272" stop-opacity="0"/>
</linearGradient>
<linearGradient id="paint22_linear_45_1417" x1="13.0411" y1="383.616" x2="14.0411" y2="383.616" gradientUnits="userSpaceOnUse">
<stop stop-color="#727272"/>
<stop offset="1" stop-color="#727272" stop-opacity="0"/>
</linearGradient>
<linearGradient id="paint23_linear_45_1417" x1="527.455" y1="687.311" x2="527.455" y2="688.311" gradientUnits="userSpaceOnUse">
<stop stop-color="#727272"/>
<stop offset="1" stop-color="#727272" stop-opacity="0"/>
</linearGradient>
<linearGradient id="paint24_linear_45_1417" x1="527.455" y1="640.588" x2="527.455" y2="641.588" gradientUnits="userSpaceOnUse">
<stop stop-color="#727272"/>
<stop offset="1" stop-color="#727272" stop-opacity="0"/>
</linearGradient>
<linearGradient id="paint25_linear_45_1417" x1="527.455" y1="593.865" x2="527.455" y2="594.865" gradientUnits="userSpaceOnUse">
<stop stop-color="#727272"/>
<stop offset="1" stop-color="#727272" stop-opacity="0"/>
</linearGradient>
<linearGradient id="paint26_linear_45_1417" x1="527.455" y1="547.143" x2="527.455" y2="548.143" gradientUnits="userSpaceOnUse">
<stop stop-color="#727272"/>
<stop offset="1" stop-color="#727272" stop-opacity="0"/>
</linearGradient>
<linearGradient id="paint27_linear_45_1417" x1="527.455" y1="500.422" x2="527.455" y2="501.422" gradientUnits="userSpaceOnUse">
<stop stop-color="#727272"/>
<stop offset="1" stop-color="#727272" stop-opacity="0"/>
</linearGradient>
<linearGradient id="paint28_linear_45_1417" x1="527.455" y1="453.697" x2="527.455" y2="454.697" gradientUnits="userSpaceOnUse">
<stop stop-color="#727272"/>
<stop offset="1" stop-color="#727272" stop-opacity="0"/>
</linearGradient>
<linearGradient id="paint29_linear_45_1417" x1="527.455" y1="406.975" x2="527.455" y2="407.975" gradientUnits="userSpaceOnUse">
<stop stop-color="#727272"/>
<stop offset="1" stop-color="#727272" stop-opacity="0"/>
</linearGradient>
<linearGradient id="paint30_linear_45_1417" x1="527.455" y1="360.254" x2="527.455" y2="361.254" gradientUnits="userSpaceOnUse">
<stop stop-color="#727272"/>
<stop offset="1" stop-color="#727272" stop-opacity="0"/>
</linearGradient>
<linearGradient id="paint31_linear_45_1417" x1="527.455" y1="313.531" x2="527.455" y2="314.531" gradientUnits="userSpaceOnUse">
<stop stop-color="#727272"/>
<stop offset="1" stop-color="#727272" stop-opacity="0"/>
</linearGradient>
<linearGradient id="paint32_linear_45_1417" x1="527.455" y1="266.809" x2="527.455" y2="267.809" gradientUnits="userSpaceOnUse">
<stop stop-color="#727272"/>
<stop offset="1" stop-color="#727272" stop-opacity="0"/>
</linearGradient>
<linearGradient id="paint33_linear_45_1417" x1="527.455" y1="220.088" x2="527.455" y2="221.088" gradientUnits="userSpaceOnUse">
<stop stop-color="#727272"/>
<stop offset="1" stop-color="#727272" stop-opacity="0"/>
</linearGradient>
<linearGradient id="paint34_linear_45_1417" x1="527.455" y1="173.365" x2="527.455" y2="174.365" gradientUnits="userSpaceOnUse">
<stop stop-color="#727272"/>
<stop offset="1" stop-color="#727272" stop-opacity="0"/>
</linearGradient>
<linearGradient id="paint35_linear_45_1417" x1="527.455" y1="126.643" x2="527.455" y2="127.643" gradientUnits="userSpaceOnUse">
<stop stop-color="#727272"/>
<stop offset="1" stop-color="#727272" stop-opacity="0"/>
</linearGradient>
<linearGradient id="paint36_linear_45_1417" x1="527.455" y1="79.92" x2="527.455" y2="80.92" gradientUnits="userSpaceOnUse">
<stop stop-color="#727272"/>
<stop offset="1" stop-color="#727272" stop-opacity="0"/>
</linearGradient>
<linearGradient id="paint37_linear_45_1417" x1="527.455" y1="33.1993" x2="527.455" y2="34.1993" gradientUnits="userSpaceOnUse">
<stop stop-color="#727272"/>
<stop offset="1" stop-color="#727272" stop-opacity="0"/>
</linearGradient>
</defs>
</svg>
