<svg width="126" height="24" viewBox="0 0 126 24" fill="none" xmlns="http://www.w3.org/2000/svg">
<path d="M122.88 3.099C122.147 2.366 121.265 2 120.233 2H107.746C106.714 2 105.832 2.366 105.099 3.099C104.366 3.832 104 4.714 104 5.746V18.233C104 19.265 104.366 20.147 105.099 20.88C105.832 21.613 106.714 21.979 107.746 21.979H110.66C110.85 21.979 110.993 21.972 111.089 21.959C111.201 21.9366 111.302 21.877 111.375 21.79C111.47 21.69 111.518 21.545 111.518 21.355L111.511 20.47C111.507 19.906 111.505 19.46 111.505 19.13L111.205 19.182C111.015 19.217 110.775 19.232 110.484 19.228C110.181 19.2224 109.878 19.192 109.58 19.137C109.262 19.0784 108.963 18.9446 108.708 18.747C108.44 18.5446 108.241 18.2656 108.136 17.947L108.006 17.647C107.896 17.4104 107.759 17.1877 107.596 16.984C107.41 16.741 107.221 16.577 107.03 16.49L106.94 16.425C106.877 16.3801 106.82 16.3277 106.77 16.269C106.722 16.2145 106.683 16.1532 106.653 16.087C106.627 16.026 106.649 15.976 106.718 15.937C106.788 15.897 106.913 15.878 107.096 15.878L107.356 15.918C107.529 15.952 107.744 16.056 107.999 16.229C108.257 16.4049 108.473 16.6362 108.63 16.906C108.83 17.261 109.07 17.532 109.352 17.719C109.634 17.905 109.918 17.999 110.204 17.999C110.49 17.999 110.737 17.977 110.946 17.934C111.148 17.8922 111.345 17.8264 111.531 17.738C111.609 17.158 111.821 16.71 112.168 16.398C111.718 16.3539 111.273 16.2757 110.835 16.164C110.408 16.0466 109.997 15.8763 109.612 15.657C109.209 15.4377 108.854 15.1414 108.565 14.785C108.288 14.438 108.06 13.983 107.882 13.42C107.705 12.856 107.616 12.205 107.616 11.468C107.616 10.419 107.958 9.526 108.643 8.788C108.323 8 108.353 7.115 108.734 6.136C108.986 6.057 109.359 6.116 109.853 6.311C110.347 6.506 110.709 6.673 110.939 6.811C111.169 6.951 111.353 7.068 111.492 7.163C112.305 6.93675 113.145 6.82303 113.989 6.825C114.848 6.825 115.68 6.938 116.487 7.163L116.981 6.851C117.361 6.62285 117.762 6.43132 118.178 6.279C118.638 6.105 118.988 6.058 119.232 6.136C119.622 7.116 119.656 8 119.335 8.789C120.02 9.526 120.363 10.419 120.363 11.469C120.363 12.206 120.274 12.859 120.096 13.426C119.919 13.994 119.689 14.449 119.407 14.792C119.113 15.1439 118.756 15.4373 118.354 15.657C117.934 15.891 117.526 16.06 117.131 16.164C116.693 16.2761 116.248 16.3546 115.798 16.399C116.248 16.789 116.474 17.404 116.474 18.245V21.355C116.474 21.502 116.495 21.621 116.539 21.712C116.559 21.7558 116.588 21.7952 116.624 21.8276C116.66 21.8601 116.701 21.8851 116.747 21.901C116.843 21.935 116.927 21.957 117.001 21.965C117.075 21.975 117.181 21.978 117.319 21.978H120.233C121.265 21.978 122.147 21.612 122.88 20.879C123.612 20.147 123.979 19.264 123.979 18.232V5.746C123.979 4.714 123.612 3.832 122.879 3.099H122.88Z" fill="#707A8F"/>
<path d="M7.539 22.5C16.596 22.5 21.5505 14.9955 21.5505 8.49897C21.5505 8.28897 21.5505 8.07597 21.5415 7.86597C22.5061 7.1677 23.3386 6.3032 24 5.31297C23.099 5.71025 22.1441 5.97208 21.1665 6.08997C22.1963 5.47443 22.9676 4.50592 23.337 3.36447C22.3695 3.93766 21.3105 4.34003 20.2065 4.55397C19.4643 3.76351 18.4821 3.23985 17.4121 3.06411C16.3421 2.88837 15.2441 3.07035 14.288 3.58188C13.3319 4.0934 12.5712 4.90591 12.1237 5.89356C11.6761 6.88121 11.5668 7.98887 11.8125 9.04497C9.85461 8.9468 7.93922 8.43817 6.19056 7.55209C4.4419 6.666 2.89903 5.42224 1.662 3.90147C1.03401 4.9861 0.842361 6.26907 1.12597 7.48987C1.40958 8.71067 2.14718 9.77777 3.189 10.4745C2.40831 10.4479 1.64478 10.2383 0.96 9.86247V9.92997C0.961346 11.0662 1.35496 12.1671 2.07431 13.0466C2.79366 13.9261 3.79462 14.5303 4.908 14.757C4.48539 14.8734 4.04884 14.9314 3.6105 14.9295C3.30148 14.9304 2.99307 14.9018 2.6895 14.844C3.00418 15.8221 3.61691 16.6772 4.44187 17.2897C5.26683 17.9022 6.2627 18.2412 7.29 18.2595C5.54483 19.6302 3.3891 20.3736 1.17 20.37C0.778981 20.3716 0.388235 20.3491 0 20.3025C2.25227 21.7384 4.86795 22.5008 7.539 22.5Z" fill="#707A8F"/>
<g clip-path="url(#clip0_45_1514)">
<path d="M71.3178 4.51754C69.7615 3.80334 68.1194 3.29361 66.4323 3.00104C66.417 2.99847 66.4013 3.00069 66.3873 3.00741C66.3733 3.01412 66.3618 3.025 66.3543 3.03854C66.1428 3.41354 65.9088 3.90404 65.7453 4.28804C63.9267 4.01205 62.0768 4.01205 60.2583 4.28804C60.0759 3.86027 59.8695 3.44311 59.6403 3.03854C59.6326 3.02515 59.621 3.01439 59.6071 3.0077C59.5931 3.00101 59.5775 2.99869 59.5623 3.00104C57.8748 3.29204 56.2323 3.80204 54.6768 4.51754C54.6634 4.52262 54.6523 4.53216 54.6453 4.54454C51.5343 9.19304 50.6808 13.7275 51.0993 18.205C51.1008 18.226 51.1143 18.247 51.1308 18.2605C52.9423 19.6025 54.9686 20.627 57.1233 21.2905C57.1385 21.2953 57.1548 21.2952 57.1699 21.29C57.185 21.2849 57.1981 21.2751 57.2073 21.262C57.6693 20.632 58.0803 19.9675 58.4343 19.2685C58.4416 19.2541 58.4442 19.2377 58.4415 19.2218C58.4388 19.2059 58.431 19.1912 58.4193 19.18C58.4115 19.1727 58.4023 19.1671 58.3923 19.1635C57.746 18.9152 57.1201 18.6168 56.5203 18.271C56.5035 18.2615 56.491 18.246 56.4855 18.2275C56.4799 18.2091 56.4816 18.1892 56.4903 18.172C56.4954 18.1609 56.5031 18.1511 56.5128 18.1435C56.6388 18.049 56.7648 17.95 56.8848 17.851C56.8954 17.8425 56.9081 17.837 56.9215 17.8352C56.935 17.8333 56.9487 17.8352 56.9613 17.8405C60.8898 19.6345 65.1423 19.6345 69.0228 17.8405C69.0357 17.8349 69.05 17.8329 69.064 17.8348C69.078 17.8366 69.0912 17.8423 69.1023 17.851C69.2223 17.95 69.3483 18.049 69.4743 18.1435C69.4845 18.151 69.4927 18.1609 69.4981 18.1723C69.5036 18.1837 69.5061 18.1963 69.5055 18.2089C69.5049 18.2215 69.5012 18.2338 69.4947 18.2447C69.4882 18.2555 69.4791 18.2646 69.4683 18.271C68.8698 18.6199 68.2431 18.918 67.5948 19.162C67.5844 19.1658 67.575 19.1718 67.5672 19.1795C67.5595 19.1873 67.5535 19.1967 67.5498 19.207C67.5463 19.2171 67.5449 19.2277 67.5457 19.2383C67.5464 19.2488 67.5494 19.2591 67.5543 19.2685C67.9143 19.966 68.3268 20.632 68.7798 21.262C68.7889 21.2751 68.802 21.2849 68.8171 21.29C68.8322 21.2952 68.8485 21.2953 68.8638 21.2905C71.022 20.6291 73.0516 19.6044 74.8653 18.2605C74.8743 18.2543 74.8819 18.246 74.8873 18.2364C74.8928 18.2268 74.896 18.2161 74.8968 18.205C75.3978 13.0285 74.0583 8.53154 71.3478 4.54604C71.345 4.53946 71.3409 4.53352 71.3358 4.52861C71.3306 4.5237 71.3245 4.51993 71.3178 4.51754ZM59.0208 15.478C57.8373 15.478 56.8638 14.392 56.8638 13.06C56.8638 11.7265 57.8193 10.6405 59.0208 10.6405C60.2313 10.6405 61.1958 11.7355 61.1778 13.06C61.1778 14.392 60.2223 15.478 59.0208 15.478ZM66.9948 15.478C65.8128 15.478 64.8378 14.392 64.8378 13.06C64.8378 11.7265 65.7933 10.6405 66.9948 10.6405C68.2053 10.6405 69.1713 11.7355 69.1518 13.06C69.1518 14.392 68.2053 15.478 66.9948 15.478Z" fill="#707A8F"/>
</g>
<defs>
<clipPath id="clip0_45_1514">
<rect width="24" height="24" fill="white" transform="translate(51)"/>
</clipPath>
</defs>
</svg>
