<svg width="24" height="24" viewBox="0 0 24 24" fill="none" xmlns="http://www.w3.org/2000/svg">
<path d="M7.539 22.5C16.596 22.5 21.5505 14.9955 21.5505 8.49897C21.5505 8.28897 21.5505 8.07597 21.5415 7.86597C22.5061 7.1677 23.3386 6.3032 24 5.31297C23.099 5.71025 22.1441 5.97208 21.1665 6.08997C22.1963 5.47443 22.9676 4.50592 23.337 3.36447C22.3695 3.93766 21.3105 4.34003 20.2065 4.55397C19.4643 3.76351 18.4821 3.23985 17.4121 3.06411C16.3421 2.88837 15.2441 3.07035 14.288 3.58188C13.3319 4.0934 12.5712 4.90591 12.1237 5.89356C11.6761 6.88121 11.5668 7.98887 11.8125 9.04497C9.85461 8.9468 7.93922 8.43817 6.19056 7.55209C4.4419 6.666 2.89903 5.42224 1.662 3.90147C1.03401 4.9861 0.842361 6.26907 1.12597 7.48987C1.40958 8.71067 2.14718 9.77777 3.189 10.4745C2.40831 10.4479 1.64478 10.2383 0.96 9.86247V9.92997C0.961346 11.0662 1.35496 12.1671 2.07431 13.0466C2.79366 13.9261 3.79462 14.5303 4.908 14.757C4.48539 14.8734 4.04884 14.9314 3.6105 14.9295C3.30148 14.9304 2.99307 14.9018 2.6895 14.844C3.00418 15.8221 3.61691 16.6772 4.44187 17.2897C5.26683 17.9022 6.2627 18.2412 7.29 18.2595C5.54483 19.6302 3.3891 20.3736 1.17 20.37C0.778981 20.3716 0.388235 20.3491 0 20.3025C2.25227 21.7384 4.86795 22.5008 7.539 22.5Z" fill="#707A8F"/>
</svg>
