<svg width="205" height="58" viewBox="0 0 205 58" fill="none" xmlns="http://www.w3.org/2000/svg">
<g filter="url(#filter0_d_45_1524)">
<rect x="110" y="22" width="56" height="23" rx="11.5" fill="#101010"/>
<rect x="110.5" y="22.5" width="55" height="22" rx="11" stroke="#6D28D9"/>
</g>
<path d="M120.396 38L123.024 29.6H124.188L126.804 38H125.7L125.088 35.912H122.112L121.5 38H120.396ZM123.576 31.016L122.364 35.072H124.836L123.624 31.016H123.576ZM128.095 38V37.136H130.123V30.524C130.123 30.324 130.023 30.224 129.823 30.224H128.311V29.36H130.063C130.407 29.36 130.671 29.452 130.855 29.636C131.039 29.82 131.131 30.084 131.131 30.428V37.136H133.159V38H128.095ZM135.327 40.64V32.048H136.143L136.263 33.032H136.335C136.487 32.712 136.731 32.444 137.067 32.228C137.403 32.012 137.799 31.904 138.255 31.904C138.735 31.904 139.167 32.024 139.551 32.264C139.943 32.504 140.251 32.86 140.475 33.332C140.699 33.796 140.811 34.364 140.811 35.036C140.811 35.7 140.695 36.264 140.463 36.728C140.239 37.192 139.927 37.544 139.527 37.784C139.135 38.024 138.683 38.144 138.171 38.144C137.715 38.144 137.327 38.048 137.007 37.856C136.695 37.656 136.471 37.424 136.335 37.16V40.64H135.327ZM138.051 37.184C138.555 37.184 138.971 37.008 139.299 36.656C139.627 36.296 139.791 35.752 139.791 35.024C139.791 34.296 139.627 33.756 139.299 33.404C138.971 33.044 138.555 32.864 138.051 32.864C137.547 32.864 137.131 33.044 136.803 33.404C136.475 33.756 136.311 34.296 136.311 35.024C136.311 35.752 136.475 36.296 136.803 36.656C137.131 37.008 137.547 37.184 138.051 37.184ZM142.582 38V29.36H143.59V32.948C143.75 32.644 144.014 32.396 144.382 32.204C144.75 32.004 145.154 31.904 145.594 31.904C146.322 31.904 146.874 32.124 147.25 32.564C147.634 33.004 147.826 33.62 147.826 34.412V38H146.818V34.544C146.818 34.008 146.686 33.592 146.422 33.296C146.166 33 145.806 32.852 145.342 32.852C145.022 32.852 144.73 32.924 144.466 33.068C144.202 33.212 143.99 33.424 143.83 33.704C143.67 33.984 143.59 34.328 143.59 34.736V38H142.582ZM151.877 38.144C151.405 38.144 151.013 38.06 150.701 37.892C150.389 37.724 150.157 37.504 150.005 37.232C149.853 36.952 149.777 36.648 149.777 36.32C149.777 35.712 149.997 35.252 150.437 34.94C150.885 34.62 151.481 34.46 152.225 34.46H153.857V34.34C153.857 33.3 153.381 32.78 152.429 32.78C152.045 32.78 151.721 32.864 151.457 33.032C151.201 33.2 151.037 33.464 150.965 33.824H149.933C149.973 33.424 150.105 33.08 150.329 32.792C150.561 32.504 150.857 32.284 151.217 32.132C151.577 31.98 151.981 31.904 152.429 31.904C153.277 31.904 153.893 32.128 154.277 32.576C154.669 33.016 154.865 33.604 154.865 34.34V38H154.001L153.917 37.076H153.833C153.657 37.364 153.421 37.616 153.125 37.832C152.837 38.04 152.421 38.144 151.877 38.144ZM152.057 37.256C152.441 37.256 152.765 37.164 153.029 36.98C153.301 36.796 153.505 36.552 153.641 36.248C153.785 35.944 153.857 35.612 153.857 35.252H152.309C151.765 35.252 151.381 35.344 151.157 35.528C150.941 35.712 150.833 35.956 150.833 36.26C150.833 36.572 150.937 36.816 151.145 36.992C151.353 37.168 151.657 37.256 152.057 37.256Z" fill="#D9C5F8"/>
<path d="M53.248 42L59.608 25.2H63.136L56.464 42H53.248ZM52.888 42L46.192 25.2H49.72L56.104 42H52.888ZM70.0154 42L69.9194 39.576V35.928C69.9194 35.208 69.8394 34.592 69.6794 34.08C69.5354 33.568 69.2954 33.176 68.9594 32.904C68.6394 32.616 68.1994 32.472 67.6394 32.472C67.1274 32.472 66.6634 32.584 66.2474 32.808C65.8314 33.032 65.4794 33.376 65.1914 33.84L62.4074 32.88C62.6314 32.368 62.9594 31.872 63.3914 31.392C63.8234 30.896 64.3834 30.496 65.0714 30.192C65.7754 29.872 66.6314 29.712 67.6394 29.712C68.8554 29.712 69.8634 29.944 70.6634 30.408C71.4794 30.872 72.0794 31.528 72.4634 32.376C72.8634 33.208 73.0554 34.2 73.0394 35.352L72.9674 42H70.0154ZM66.6554 42.288C65.2154 42.288 64.0954 41.968 63.2954 41.328C62.5114 40.688 62.1194 39.784 62.1194 38.616C62.1194 37.336 62.5434 36.376 63.3914 35.736C64.2554 35.08 65.4634 34.752 67.0154 34.752H70.0634V37.104H68.1194C67.0794 37.104 66.3594 37.232 65.9594 37.488C65.5594 37.728 65.3594 38.072 65.3594 38.52C65.3594 38.872 65.5194 39.152 65.8394 39.36C66.1594 39.552 66.6074 39.648 67.1834 39.648C67.7114 39.648 68.1754 39.528 68.5754 39.288C68.9914 39.032 69.3194 38.712 69.5594 38.328C69.7994 37.928 69.9194 37.52 69.9194 37.104H70.6874C70.6874 38.736 70.3754 40.008 69.7514 40.92C69.1434 41.832 68.1114 42.288 66.6554 42.288ZM74.6043 42V25.2H77.7723V42H74.6043ZM83.5345 42L88.0945 30H91.3585L86.4385 42H83.5345ZM83.2705 42L78.3505 30H81.6145L86.1745 42H83.2705ZM96.9754 42.288C95.7914 42.288 94.7434 42.024 93.8314 41.496C92.9194 40.952 92.1994 40.208 91.6714 39.264C91.1594 38.32 90.9034 37.232 90.9034 36C90.9034 34.768 91.1674 33.68 91.6954 32.736C92.2394 31.792 92.9754 31.056 93.9034 30.528C94.8474 29.984 95.9274 29.712 97.1434 29.712C98.1994 29.712 99.1674 29.992 100.047 30.552C100.943 31.096 101.655 31.904 102.183 32.976C102.727 34.032 102.999 35.32 102.999 36.84H93.9034L94.1914 36.552C94.1914 37.144 94.3354 37.664 94.6234 38.112C94.9274 38.544 95.3114 38.88 95.7754 39.12C96.2554 39.344 96.7674 39.456 97.3114 39.456C97.9674 39.456 98.5034 39.32 98.9194 39.048C99.3354 38.76 99.6554 38.392 99.8794 37.944L102.711 39.048C102.375 39.72 101.935 40.304 101.391 40.8C100.863 41.28 100.231 41.648 99.4954 41.904C98.7594 42.16 97.9194 42.288 96.9754 42.288ZM94.3594 34.776L94.0714 34.488H99.8554L99.5914 34.776C99.5914 34.2 99.4554 33.744 99.1834 33.408C98.9114 33.056 98.5754 32.8 98.1754 32.64C97.7914 32.48 97.4154 32.4 97.0474 32.4C96.6794 32.4 96.2874 32.48 95.8714 32.64C95.4554 32.8 95.0954 33.056 94.7914 33.408C94.5034 33.744 94.3594 34.2 94.3594 34.776Z" fill="white"/>
<path fill-rule="evenodd" clip-rule="evenodd" d="M25.8489 15.4825C24.6181 15.3369 23.3827 15.2134 22.1426 15.1119C22.28 15.0174 22.3623 14.8938 22.3897 14.7413C22.741 14.6796 22.9881 14.4737 23.1309 14.1235C23.5428 13.9588 23.9545 13.9588 24.3663 14.1235C24.6804 14.8098 25.1746 15.2628 25.8489 15.4825Z" fill="#727272"/>
<path fill-rule="evenodd" clip-rule="evenodd" d="M23.625 14.2471C23.8415 14.2148 24.0063 14.2971 24.1192 14.4942C23.817 14.7694 23.4877 14.8106 23.1309 14.6177C23.3572 14.5489 23.5217 14.4254 23.625 14.2471Z" fill="#E3E3E3"/>
<path fill-rule="evenodd" clip-rule="evenodd" d="M17.9412 15.4825C18.2706 15.4825 18.6001 15.4825 18.9295 15.4825C18.9664 15.7424 18.9253 15.9895 18.806 16.2238C18.3229 16.4593 17.9111 16.7888 17.5705 17.2121C17.472 17.1557 17.4308 17.0733 17.447 16.965C17.3858 16.3823 17.5506 15.8882 17.9412 15.4825Z" fill="#D9D9D9"/>
<path fill-rule="evenodd" clip-rule="evenodd" d="M21.6475 15.4825C22.1251 15.539 22.5369 15.7449 22.8829 16.1003C25.0501 16.1564 26.862 16.9388 28.3188 18.4476C28.0737 18.4052 27.9091 18.4875 27.8246 18.6947C27.2482 18.777 26.9186 19.1065 26.8363 19.683C26.2386 21.107 26.6502 22.1366 28.0717 22.7716C27.3663 23.0175 26.7898 23.5528 26.3421 24.3776C25.7281 24.5654 25.7281 24.8125 26.3421 25.1189C26.8039 25.2831 27.2981 25.4478 27.8246 25.613C27.5776 25.8601 27.3305 26.1072 27.0834 26.3543C25.0328 26.7433 23.0561 27.361 21.1533 28.2074C18.9979 30.0946 18.339 32.4419 19.1766 35.2494C19.8803 35.7376 20.6216 35.8199 21.4004 35.4965C21.7189 34.3891 22.2955 34.2243 23.13 35.0023C23.8157 34.6507 24.5569 34.486 25.3538 34.5081C25.3073 34.112 25.4309 33.7825 25.7244 33.5198C25.8472 34.1736 25.8885 34.8325 25.848 35.4965C25.7741 36.3872 25.486 37.211 24.9832 37.9673C23.7737 39.3122 22.6206 40.7124 21.524 42.1678C21.2741 42.3746 20.9858 42.4569 20.6592 42.4149C20.5509 42.4309 20.4685 42.3899 20.4121 42.2913C21.8872 40.6292 22.6696 38.6935 22.7594 36.4848C22.3492 37.6355 21.9374 38.7884 21.524 39.944C20.9138 40.8861 20.2961 41.8332 19.6708 42.7855C19.9051 42.9048 20.1521 42.9458 20.4121 42.909C20.7105 43.0904 21.04 43.1727 21.4004 43.1561C22.2282 43.1576 22.9694 43.4047 23.6242 43.8974C23.049 44.1998 22.4726 44.1998 21.8946 43.8974C21.4853 44.4496 20.9912 44.5319 20.4121 44.1445C20.1616 43.8544 19.8322 43.6898 19.4237 43.6503C18.7673 43.7338 18.1907 43.569 17.6941 43.1561C17.5368 42.1764 17.2897 41.2293 16.9529 40.3146C16.6697 40.1553 16.4226 39.9494 16.2116 39.6969C15.9062 39.8812 15.5767 39.9635 15.2233 39.944C15.2638 40.6079 15.2226 41.2669 15.0997 41.9207C14.7753 41.6556 14.4047 41.4908 13.9879 41.4265C13.562 41.6865 13.1502 41.6865 12.7524 41.4265C12.458 40.028 12.458 38.6278 12.7524 37.2261C12.7448 36.5651 12.4154 36.2355 11.7641 36.2377C11.8346 35.7959 11.7522 35.384 11.517 35.0023C11.3108 37.3133 11.0637 39.6196 10.7757 41.9207C10.8683 43.1381 11.2801 44.25 12.0112 45.2563C10.9055 45.267 10.1642 44.7315 9.7874 43.6503C9.30798 42.1475 8.77264 40.665 8.18134 39.2027C7.21524 38.7199 6.39163 38.061 5.71049 37.2261C5.61595 37.3634 5.49241 37.4457 5.33986 37.4731C5.01205 37.1519 4.68261 36.8226 4.35152 36.4848C4.26917 36.5261 4.18679 36.5671 4.10443 36.6083C4.30334 36.8834 4.46807 37.1715 4.5986 37.4731C4.35189 37.4946 4.06364 37.5769 3.73381 37.7202C3.27262 37.15 3.02553 36.491 2.99255 35.7436C2.84059 34.0789 2.96413 32.4316 3.36318 30.8018C3.27927 30.3047 3.19691 29.8105 3.11609 29.3193C3.11609 29.1546 3.11609 28.9899 3.11609 28.8252C4.37682 27.8293 5.61225 26.7997 6.82237 25.7366C8.35598 24.8463 9.92088 24.0227 11.517 23.2657C14.3093 20.5568 17.2743 18.086 20.4121 15.8532C20.7889 15.604 21.2007 15.4804 21.6475 15.4825Z" fill="#FCFCFC"/>
<path fill-rule="evenodd" clip-rule="evenodd" d="M22.3878 14.7412C22.3604 14.8938 22.2781 15.0173 22.1407 15.1119C23.3808 15.2134 24.6162 15.3369 25.847 15.4825C26.7805 16.0736 27.7688 16.609 28.812 17.0886C29.1414 17.418 29.471 17.7475 29.8003 18.0769C29.2849 18.1548 28.7907 18.2783 28.3178 18.4475C26.861 16.9388 25.0491 16.1564 22.8819 16.1002C22.5359 15.7449 22.1241 15.539 21.6465 15.4825C21.5621 15.2754 21.3974 15.193 21.1523 15.2354C21.4687 14.8818 21.8805 14.7171 22.3878 14.7412Z" fill="#E3E3E3"/>
<path fill-rule="evenodd" clip-rule="evenodd" d="M22.6364 18.2005C22.7395 18.3788 22.9042 18.5023 23.1306 18.5711C22.504 18.6171 21.9275 18.7406 21.401 18.9417C20.4367 19.0899 20.4367 18.8428 21.401 18.2005C21.8129 17.9123 22.2247 17.9123 22.6364 18.2005Z" fill="#555555"/>
<path fill-rule="evenodd" clip-rule="evenodd" d="M25.8477 15.4825C27.7161 15.7914 29.1986 16.6974 30.2952 18.2004C29.4976 18.4588 28.6741 18.6235 27.8243 18.6946C27.9088 18.4875 28.0734 18.4051 28.3185 18.4475C28.7914 18.2783 29.2856 18.1548 29.801 18.0769C29.4717 17.7474 29.142 17.418 28.8127 17.0885C27.7695 16.609 26.7811 16.0736 25.8477 15.4825Z" fill="#666666"/>
<path fill-rule="evenodd" clip-rule="evenodd" d="M16.4598 14.7413C17.7369 14.3797 18.9312 14.6268 20.0425 15.4825C20.3983 15.3225 20.7689 15.2401 21.1544 15.2354C21.3994 15.193 21.5642 15.2754 21.6486 15.4825C21.2018 15.4804 20.79 15.6039 20.4132 15.8531C17.2754 18.086 14.3104 20.5568 11.5181 23.2657C9.92197 24.0227 8.35708 24.8463 6.82347 25.7366C5.61334 26.7997 4.37792 27.8292 3.11719 28.8251C3.62534 27.9438 4.28422 27.1613 5.09387 26.4778C6.99176 25.1991 8.96844 24.046 11.0239 23.0186C12.7174 21.4751 14.447 19.9926 16.2127 18.5711C16.778 17.9874 17.025 17.2874 16.954 16.4709C16.7069 16.4709 16.4598 16.4709 16.2127 16.4709C16.4765 16.24 16.806 16.1576 17.2011 16.2238C17.1424 16.5428 17.2248 16.7898 17.4481 16.965C17.432 17.0733 17.4732 17.1557 17.5717 17.2121C17.9122 16.7888 18.324 16.4593 18.8071 16.2238C18.9264 15.9895 18.9676 15.7424 18.9307 15.4825C18.6012 15.4825 18.2718 15.4825 17.9423 15.4825C18.1307 15.2928 18.3778 15.1692 18.6836 15.1119C17.9689 14.828 17.2276 14.7045 16.4598 14.7413Z" fill="#7A7A7A"/>
<path fill-rule="evenodd" clip-rule="evenodd" d="M24.8608 46.8624C24.7439 47.2098 24.4969 47.3746 24.1196 47.3566C22.8441 47.2217 21.5264 47.1804 20.1662 47.2331C19.3223 46.9506 19.24 46.5387 19.9191 45.9976C21.1917 45.9759 22.4271 45.7701 23.6254 45.3799C23.8982 45.6594 23.8159 45.8654 23.3783 45.9976C22.3098 46.2126 21.2391 46.4184 20.1662 46.6153C21.7396 46.6465 23.3044 46.729 24.8608 46.8624Z" fill="#8B8B8B"/>
<path fill-rule="evenodd" clip-rule="evenodd" d="M9.54036 45.3799C9.78141 45.7048 10.0285 46.0341 10.2816 46.3682C9.64411 46.915 9.64411 47.4504 10.2816 47.9743C12.4431 48.1539 14.4609 48.7716 16.3352 49.8274C16.7606 49.8 16.8018 49.6764 16.4588 49.4568C15.842 49.1899 15.2655 48.8603 14.7292 48.4684C13.2882 48.1077 11.8468 47.7371 10.4052 47.3566C10.5654 46.7803 10.5243 46.2036 10.2816 45.627C10.4052 45.5447 10.5287 45.4621 10.6522 45.3799C11.8264 45.6922 13.0207 45.857 14.235 45.874C14.2301 45.4681 14.3948 45.1387 14.7292 44.8857C14.1045 44.5605 14.1045 44.2722 14.7292 44.0209C15.0586 43.8561 15.3881 43.8561 15.7175 44.0209C16.0946 44.4871 16.5887 44.7342 17.2 44.7622C18.2237 44.9704 18.8826 44.9292 19.1767 44.6386C19.2799 44.4602 19.4446 44.3367 19.6709 44.268C19.485 44.1022 19.4026 43.8964 19.4238 43.6503C19.8322 43.6898 20.1616 43.8544 20.4121 44.1444C20.3848 44.2969 20.3024 44.4204 20.165 44.5151C21.581 44.567 22.9811 44.7315 24.3655 45.0092C25.0269 45.2104 25.5211 45.581 25.848 46.1211C25.5186 46.3682 25.189 46.6153 24.8597 46.8624C23.3033 46.729 21.7385 46.6464 20.165 46.6153C21.238 46.4184 22.3087 46.2125 23.3771 45.9976C23.8147 45.8654 23.897 45.6593 23.6242 45.3799C22.4259 45.77 21.1905 45.9758 19.9179 45.9976C19.2388 46.5387 19.3212 46.9506 20.165 47.233C21.5252 47.1804 22.8429 47.2216 24.1184 47.3566C22.7039 48.3933 21.139 49.1756 19.4238 49.7039C12.9674 51.3304 7.94337 49.3948 4.35156 43.8974C4.45457 43.7432 4.6193 43.6609 4.84573 43.6503C6.54697 43.8722 8.11183 44.4486 9.54036 45.3799Z" fill="#C9C9C9"/>
<path fill-rule="evenodd" clip-rule="evenodd" d="M11.7638 36.2377C11.4851 38.6211 11.3616 41.0094 11.3932 43.4032C11.7987 44.0098 12.1693 44.6275 12.5051 45.2563C12.9925 45.3786 13.4867 45.4199 13.9876 45.3798C13.7551 44.2032 13.0139 43.5855 11.7638 43.5267C13.2466 43.6688 14.7292 43.6275 16.2113 43.4032C15.6901 42.4726 15.4842 41.4843 15.5936 40.4381C15.8482 41.7801 16.3423 43.0155 17.0761 44.1444C17.7098 44.5593 18.4099 44.7241 19.1764 44.6386C18.8823 44.9292 18.2234 44.9704 17.1997 44.7621C16.5884 44.7342 16.0943 44.4871 15.7172 44.0209C15.3877 43.8561 15.0583 43.8561 14.7288 44.0209C14.1042 44.2722 14.1042 44.5605 14.7288 44.8857C14.3945 45.1387 14.2298 45.4681 14.2347 45.874C13.0204 45.857 11.8261 45.6922 10.6519 45.3798C10.5284 45.4621 10.4048 45.5447 10.2813 45.6269C10.5239 46.2036 10.5651 46.7803 10.4048 47.3565C11.8465 47.737 13.2879 48.1077 14.7288 48.4684C15.2651 48.8603 15.8417 49.1899 16.4584 49.4568C16.8014 49.6764 16.7602 49.8 16.3349 49.8274C14.4606 48.7716 12.4427 48.1539 10.2813 47.9742C9.64379 47.4504 9.64379 46.915 10.2813 46.3682C10.0282 46.0341 9.7811 45.7048 9.54004 45.3798C9.74715 45.2953 9.82952 45.1308 9.78712 44.8857C9.60423 44.5328 9.60423 44.1209 9.78712 43.6503C10.1639 44.7315 10.9052 45.2669 12.0109 45.2563C11.2798 44.2499 10.868 43.138 10.7755 41.9207C11.0634 39.6195 11.3105 37.3132 11.5167 35.0023C11.7519 35.384 11.8343 35.7959 11.7638 36.2377Z" fill="#858585"/>
<path fill-rule="evenodd" clip-rule="evenodd" d="M21.6476 42.6619C22.4315 42.8275 23.1728 43.1156 23.8713 43.5267C24.0888 43.8618 24.1713 44.2324 24.1184 44.6386C24.899 44.9808 25.7225 45.2279 26.5893 45.3799C26.3422 45.627 26.0951 45.874 25.848 46.1211C25.5211 45.581 25.0269 45.2104 24.3655 45.0092C22.9811 44.7315 21.581 44.567 20.165 44.5151C20.3024 44.4204 20.3848 44.2969 20.4121 44.1444C20.9912 44.5319 21.4854 44.4496 21.8946 43.8974C22.4726 44.1998 23.049 44.1998 23.6242 43.8974C22.9695 43.4047 22.2283 43.1576 21.4005 43.1561C21.4828 42.9913 21.5652 42.8267 21.6476 42.6619Z" fill="#969696"/>
<path fill-rule="evenodd" clip-rule="evenodd" d="M5.34063 37.4731C6.61841 39.6747 7.73029 41.9807 8.67628 44.3915C9.03962 44.5811 9.41025 44.7456 9.78817 44.8857C9.83057 45.1308 9.74819 45.2954 9.54108 45.3799C8.11256 44.4486 6.54769 43.8722 4.84646 43.6503C4.62003 43.6609 4.4553 43.7432 4.35229 43.8974C4.12892 43.7222 4.04657 43.4751 4.1052 43.1561C5.26636 43.4034 6.41943 43.3212 7.5644 42.909C6.97134 41.5014 6.35363 40.1014 5.71126 38.7086C5.45204 38.1852 5.08141 37.7736 4.59937 37.4731C4.46884 37.1715 4.30411 36.8834 4.1052 36.6083C4.18756 36.5671 4.26993 36.5261 4.35229 36.4848C4.68338 36.8226 5.01282 37.1519 5.34063 37.4731Z" fill="#737373"/>
<path fill-rule="evenodd" clip-rule="evenodd" d="M9.78836 43.6503C9.60547 44.121 9.60547 44.5329 9.78836 44.8857C9.41044 44.7456 9.03981 44.581 8.67647 44.3915C7.73048 41.9807 6.6186 39.6747 5.34082 37.4731C5.49337 37.4457 5.61691 37.3634 5.71145 37.226C6.39259 38.0609 7.2162 38.7199 8.1823 39.2027C8.7736 40.665 9.30894 42.1475 9.78836 43.6503Z" fill="#E8E8E8"/>
<path fill-rule="evenodd" clip-rule="evenodd" d="M20.6592 42.4149C20.5769 42.5797 20.4945 42.7442 20.4122 42.909C20.1522 42.9458 19.9051 42.9048 19.6709 42.7855C20.2962 41.8332 20.9139 40.8861 21.524 39.944C21.9374 38.7884 22.3493 37.6355 22.7595 36.4848C22.6697 38.6935 21.8873 40.6292 20.4122 42.2913C20.4686 42.3899 20.551 42.4309 20.6592 42.4149Z" fill="#9E9E9E"/>
<path fill-rule="evenodd" clip-rule="evenodd" d="M11.7632 36.2377C12.4145 36.2354 12.7439 36.565 12.7515 37.226C12.4571 38.6277 12.4571 40.0279 12.7515 41.4264C13.1493 41.6864 13.5611 41.6864 13.9869 41.4264C14.4038 41.4907 14.7744 41.6555 15.0988 41.9206C15.2217 41.2668 15.2629 40.6079 15.2224 39.9439C15.5758 39.9635 15.9053 39.8812 16.2107 39.6968C16.4217 39.9494 16.6688 40.1552 16.952 40.3146C17.2888 41.2293 17.5359 42.1764 17.6932 43.156C18.1898 43.5689 18.7663 43.7337 19.4228 43.6502C19.4016 43.8963 19.484 44.1021 19.6699 44.2679C19.4436 44.3366 19.2789 44.4602 19.1757 44.6386C18.4092 44.7241 17.7091 44.5592 17.0755 44.1444C16.3417 43.0155 15.8475 41.78 15.593 40.4381C15.4836 41.4843 15.6895 42.4726 16.2107 43.4031C14.7285 43.6275 13.246 43.6687 11.7632 43.5267C13.0132 43.5855 13.7545 44.2032 13.9869 45.3798C13.486 45.4198 12.9918 45.3786 12.5044 45.2563C12.1687 44.6274 11.7981 44.0097 11.3925 43.4031C11.3609 41.0094 11.4844 38.621 11.7632 36.2377Z" fill="#E6E6E6"/>
<path fill-rule="evenodd" clip-rule="evenodd" d="M3.11614 29.3194C3.19696 29.8105 3.27931 30.3047 3.36322 30.8019C2.96418 32.4317 2.84064 34.0789 2.99259 35.7436C3.02558 36.491 3.27267 37.15 3.73385 37.7203C4.06368 37.577 4.35193 37.4947 4.59865 37.4732C5.08069 37.7736 5.45132 38.1853 5.71053 38.7086C6.35291 40.1014 6.97062 41.5014 7.56367 42.9091C6.41871 43.3212 5.26563 43.4035 4.10448 43.1562C2.04455 39.7691 1.26211 36.0628 1.75717 32.0373C1.80967 30.8942 2.26265 29.9883 3.11614 29.3194Z" fill="#ECECEC"/>
<path fill-rule="evenodd" clip-rule="evenodd" d="M29.5543 22.4009C29.4624 23.9689 30.0388 24.3808 31.2839 23.6363C30.9545 24.2952 30.9545 24.9541 31.2839 25.613C30.514 26.178 29.855 26.8781 29.3072 27.7132C28.5862 28.1355 27.886 28.5884 27.207 29.0722C26.8919 31.9097 26.3978 34.71 25.7244 37.4731C24.6042 39.3809 23.2452 41.1105 21.6475 42.6619C21.5652 42.8267 21.4828 42.9913 21.4005 43.1561C21.04 43.1726 20.7106 43.0904 20.4121 42.909C20.4945 42.7442 20.5768 42.5796 20.6592 42.4148C20.9859 42.4568 21.2741 42.3746 21.524 42.1677C22.6206 40.7124 23.7737 39.3122 24.9832 37.9673C25.486 37.211 25.7741 36.3872 25.848 35.4964C26.0691 33.5589 26.275 31.5823 26.4657 29.5664C26.7615 28.9267 27.0086 28.2678 27.207 27.5897C27.3093 27.4767 27.4328 27.3943 27.5776 27.3426C27.7006 27.6153 27.7829 27.8623 27.8247 28.0839C29.386 27.2682 30.3743 26.0328 30.7897 24.3776C30.2147 24.4401 29.7206 24.2754 29.3072 23.8834C28.4876 24.7052 27.4993 25.117 26.3422 25.1188C25.7282 24.8125 25.7282 24.5654 26.3422 24.3776C26.6233 24.8572 27.035 24.8984 27.5776 24.5011C28.2541 24.2111 28.7483 23.7581 29.0601 23.1422C29.2657 23.0794 29.4305 22.8323 29.5543 22.4009Z" fill="#797979"/>
<path fill-rule="evenodd" clip-rule="evenodd" d="M25.8482 35.4964C25.8887 34.8324 25.8474 34.1735 25.7246 33.5198C25.4311 33.7825 25.3075 34.1119 25.354 34.5081C24.5571 34.486 23.8159 34.6507 23.1302 35.0023C22.2957 34.2243 21.7191 34.3891 21.4006 35.4964C20.6218 35.8199 19.8805 35.7376 19.1768 35.2494C18.3392 32.4419 18.9981 30.0946 21.1535 28.2074C23.0563 27.361 25.033 26.7432 27.0836 26.3543C27.3307 26.1072 27.5778 25.8601 27.8248 25.613C27.2983 25.4478 26.8041 25.2831 26.3423 25.1189C27.4994 25.117 28.4878 24.7052 29.3074 23.8834C29.7207 24.2754 30.2149 24.4401 30.7899 24.3776C30.3745 26.0328 29.3862 27.2682 27.8248 28.0839C27.7831 27.8623 27.7008 27.6153 27.5778 27.3426C27.433 27.3943 27.3094 27.4767 27.2071 27.5897C27.0087 28.2678 26.7616 28.9267 26.4659 29.5664C26.2751 31.5823 26.0693 33.5589 25.8482 35.4964Z" fill="#EAEAEA"/>
<path fill-rule="evenodd" clip-rule="evenodd" d="M26.8369 19.683C26.6447 21.385 27.386 22.0439 29.0607 21.6596C29.0607 22.1538 29.0607 22.648 29.0607 23.1421C28.7489 23.7581 28.2547 24.2111 27.5782 24.5011C27.0356 24.8984 26.624 24.8572 26.3428 24.3776C26.7905 23.5528 27.3669 23.0174 28.0724 22.7715C26.6509 22.1365 26.2392 21.107 26.8369 19.683Z" fill="#E6E6E6"/>
<path fill-rule="evenodd" clip-rule="evenodd" d="M31.2847 23.6364C30.0397 24.3808 29.4632 23.969 29.5551 22.4009C29.5163 22.0616 29.5576 21.7321 29.6787 21.4126C30.4204 21.2899 30.9146 20.8781 31.1612 20.1772C31.599 21.3098 31.6403 22.4628 31.2847 23.6364Z" fill="#E1E1E1"/>
<path fill-rule="evenodd" clip-rule="evenodd" d="M22.6358 18.2004C22.9652 18.2004 23.2948 18.2004 23.6242 18.2004C23.6242 18.4475 23.6242 18.6946 23.6242 18.9417C22.8829 18.9417 22.1416 18.9417 21.4004 18.9417C21.9269 18.7406 22.5035 18.6171 23.13 18.5711C22.9037 18.5023 22.739 18.3787 22.6358 18.2004Z" fill="#BFBFBF"/>
<defs>
<filter id="filter0_d_45_1524" x="97" y="9" width="82" height="49" filterUnits="userSpaceOnUse" color-interpolation-filters="sRGB">
<feFlood flood-opacity="0" result="BackgroundImageFix"/>
<feColorMatrix in="SourceAlpha" type="matrix" values="0 0 0 0 0 0 0 0 0 0 0 0 0 0 0 0 0 0 127 0" result="hardAlpha"/>
<feOffset/>
<feGaussianBlur stdDeviation="6.5"/>
<feComposite in2="hardAlpha" operator="out"/>
<feColorMatrix type="matrix" values="0 0 0 0 0.764706 0 0 0 0 0.866667 0 0 0 0 0.729412 0 0 0 0.35 0"/>
<feBlend mode="normal" in2="BackgroundImageFix" result="effect1_dropShadow_45_1524"/>
<feBlend mode="normal" in="SourceGraphic" in2="effect1_dropShadow_45_1524" result="shape"/>
</filter>
</defs>
</svg>
